<svg id="art_board_1" data-name="art board 1" xmlns="http://www.w3.org/2000/svg" xmlns:xlink="http://www.w3.org/1999/xlink" width="485.37" height="322.12" viewBox="0 0 485.37 322.12">
  <defs>
    <linearGradient id="linear-gradient" y1="0.5" x2="1" y2="0.5" gradientUnits="objectBoundingBox">
      <stop offset="0.11" stop-color="#fff"/>
      <stop offset="1" stop-color="#f8f9f8"/>
    </linearGradient>
  </defs>
  <path id="Контур_510" data-name="Контур 510" d="M469.826,100.426c10.712-6.225,10.654-16.369-.127-22.594L347.081,7.038C336.3.813,318.786.813,308.075,7.038L304.532,9.1l-6.154,3.576L24.077,172.08l-6.154,3.576-5.849,3.4c-10.712,6.225-10.654,16.369.127,22.594l122.618,70.794c10.782,6.225,28.294,6.225,39.006,0l5.849-3.4,6.154-3.576,274.3-159.406,6.154-3.576ZM397.612,46.783a3.625,3.625,0,0,1,3.3,0,1.008,1.008,0,0,1,.011,1.909,3.641,3.641,0,0,1-3.3,0,1.01,1.01,0,0,1-.011-1.909Zm-22.9-.29a2.872,2.872,0,0,1,2.61,0l24.163,13.951a.8.8,0,0,1,.009,1.512,2.873,2.873,0,0,1-2.61,0L374.719,48.006a.8.8,0,0,1-.008-1.512Zm-16.022-9.688a6.809,6.809,0,0,1,6.174-.005,1.894,1.894,0,0,1,.02,3.582,6.81,6.81,0,0,1-6.174-.005,1.886,1.886,0,0,1-.02-3.571Z" transform="translate(1.735 45.008)" fill="#252f5a" opacity="0.2"/>
  <path id="Контур_215" data-name="Контур 215" d="M44.313,80.393l-.2-.723L36.789,52.311l28.078,7.524-.526.529Zm-6.3-26.861,6.748,25.192L63.2,60.283Z" transform="translate(360.133 -33.684)" fill="#23d87d"/>
  <path id="Контур_212" data-name="Контур 212" d="M33.122,100.829A26.435,26.435,0,1,1,59.558,74.394a26.435,26.435,0,0,1-26.436,26.435Zm0-52.007A25.572,25.572,0,1,0,58.7,74.394,25.572,25.572,0,0,0,33.122,48.822Z" transform="translate(215.442 179.255)" fill="#23d87d"/>
  <path id="Контур_499" data-name="Контур 499" d="M475.531,76.46,352.912,5.666c-13.084-7.554-34.224-7.554-47.224,0l-3.545,2.06L295.99,11.3,21.689,170.708l-6.154,3.576-5.85,3.4c-6.664,3.873-9.878,8.975-9.671,14.048A122.1,122.1,0,0,1,.022,204.3c-.323,5.2,2.945,10.455,9.817,14.422l10.435,6.025,112.184,64.769c13.085,7.554,34.226,7.554,47.226,0l5.849-3.4,6.154-3.576L371.546,178.015l94.442-54.884,6.154-3.576,2.176-1.265,1.367-.794c6.664-3.873,9.878-8.975,9.672-14.048a122.242,122.242,0,0,1-.008-12.567C485.671,85.686,482.4,80.427,475.531,76.46Z" transform="translate(0 0)" fill="#252f5a"/>
  <path id="Контур_500" data-name="Контур 500" d="M469.826,100.426c10.712-6.225,10.654-16.369-.127-22.594L347.081,7.038C336.3.813,318.786.813,308.075,7.038L304.532,9.1l-6.154,3.576L24.077,172.08l-6.154,3.576-5.849,3.4c-10.712,6.225-10.654,16.369.127,22.594l122.618,70.794c10.782,6.225,28.294,6.225,39.006,0l5.849-3.4,6.154-3.576,274.3-159.406,6.154-3.576ZM397.612,46.783a3.625,3.625,0,0,1,3.3,0,1.008,1.008,0,0,1,.011,1.909,3.641,3.641,0,0,1-3.3,0,1.01,1.01,0,0,1-.011-1.909Zm-22.9-.29a2.872,2.872,0,0,1,2.61,0l24.163,13.951a.8.8,0,0,1,.009,1.512,2.873,2.873,0,0,1-2.61,0L374.719,48.006a.8.8,0,0,1-.008-1.512Zm-16.022-9.688a6.809,6.809,0,0,1,6.174-.005,1.894,1.894,0,0,1,.02,3.582,6.81,6.81,0,0,1-6.174-.005,1.886,1.886,0,0,1-.02-3.571ZM105.038,233.872c-7.169,4.166-18.841,4.161-26.056-.005s-7.254-10.921-.085-15.087,18.841-4.171,26.056-.006S112.215,229.7,105.038,233.872Zm77.87,24.17-146-84.294L297.285,22.431l146,84.294Z" transform="translate(1.735 1.008)" fill="#fff"/>
  <path id="Контур_501" data-name="Контур 501" d="M27.106,167.758l146,84.294L433.488,100.737l-146-84.294Z" transform="translate(11.535 6.997)" fill="#cbddff"/>
  <path id="Контур_502" data-name="Контур 502" d="M253.232,30.318a6.81,6.81,0,0,0,6.174.005,1.894,1.894,0,0,0-.02-3.582,6.809,6.809,0,0,0-6.174.005,1.886,1.886,0,0,0,.02,3.571Zm.621-3.2a5.4,5.4,0,0,1,4.9-.005,1.5,1.5,0,0,1,.016,2.842,5.382,5.382,0,0,1-4.9-.005,1.5,1.5,0,0,1-.016-2.831Z" transform="translate(107.212 11.066)" fill="#fff"/>
  <path id="Контур_503" data-name="Контур 503" d="M253.6,29.792a5.382,5.382,0,0,0,4.9.005,1.5,1.5,0,0,0-.016-2.842,5.4,5.4,0,0,0-4.9.005,1.5,1.5,0,0,0,.016,2.831Z" transform="translate(107.482 11.222)" fill="#252f5a"/>
  <path id="Контур_504" data-name="Контур 504" d="M280.35,35.552a3.641,3.641,0,0,0,3.3,0,1.008,1.008,0,0,0-.011-1.909,3.625,3.625,0,0,0-3.3,0,1.01,1.01,0,0,0,.011,1.909Zm.333-1.71a2.892,2.892,0,0,1,2.619-.005.8.8,0,0,1,0,1.517,2.872,2.872,0,0,1-2.61,0,.8.8,0,0,1-.008-1.512Z" transform="translate(119.008 14.148)" fill="#fff"/>
  <path id="Контур_505" data-name="Контур 505" d="M280.547,35.271a2.872,2.872,0,0,0,2.61,0,.8.8,0,0,0,0-1.517,2.892,2.892,0,0,0-2.619.005.8.8,0,0,0,.008,1.512Z" transform="translate(119.152 14.231)" fill="#252f5a"/>
  <path id="Контур_506" data-name="Контур 506" d="M264.241,34.928,288.4,48.879a2.873,2.873,0,0,0,2.611,0,.8.8,0,0,0-.009-1.512L266.843,33.416a2.872,2.872,0,0,0-2.61,0,.8.8,0,0,0,.008,1.512Z" transform="translate(112.213 14.086)" fill="#252f5a"/>
  <path id="Контур_507" data-name="Контур 507" d="M84.216,155.107c-7.216-4.166-18.878-4.166-26.056.006s-7.131,10.922.085,15.087,18.888,4.171,26.056.005S91.431,159.273,84.216,155.107Zm-1.819,14c-6.126,3.56-16.1,3.56-22.271,0s-6.2-9.34-.073-12.9,16.1-3.56,22.271,0,6.208,9.334.073,12.9Z" transform="translate(22.472 64.675)" fill="#252f5a"/>
  <path id="Контур_508" data-name="Контур 508" d="M81.527,155.743c-6.166-3.56-16.135-3.565-22.271,0s-6.093,9.34.073,12.9,16.145,3.56,22.271,0S87.693,159.3,81.527,155.743Z" transform="translate(23.27 65.138)" fill="url(#linear-gradient)"/>
  <path id="Контур_509" data-name="Контур 509" d="M58.723,179.2l0-1.3a1.555,1.555,0,0,0-.713-1.235L45.9,169.677c-.4-.23-.716-.05-.717.409l0,1.3,0,1.3a1.571,1.571,0,0,0,.713,1.234l6.055,3.5L58,180.9c.4.23.716.04.717-.409Z" transform="translate(19.226 72.162)" fill="#ffe07d"/>
  <path id="Контур_213" data-name="Контур 213" d="M107.737,235.581a8.419,8.419,0,1,1-8.419-8.419,8.419,8.419,0,0,1,8.419,8.419Z" transform="translate(-22.737 -187.14)" fill="#252f5a"/>
  <path id="Контур_214" data-name="Контур 214" d="M183.345,21.214,169.559,45.1h27.575Z" transform="translate(77.866 52.674)" fill="#ffa76c"/>
  <rect id="Прямоугольник_9" data-name="Прямоугольник 9" width="23.481" height="23.481" transform="translate(425 207.367) rotate(-45)" fill="#252f5a"/>
  <rect id="Прямоугольник_10" data-name="Прямоугольник 10" width="0.868" height="52.839" transform="translate(25.942 147.674) rotate(-45)" fill="#252f5a"/>
</svg>
