<svg xmlns="http://www.w3.org/2000/svg" xmlns:xlink="http://www.w3.org/1999/xlink" width="370.01" height="274.631" viewBox="0 0 370.01 274.631">
  <defs>
    <linearGradient id="linear-gradient" x1="0.598" y1="3.306" x2="0.406" y2="-2.167" gradientUnits="objectBoundingBox">
      <stop offset="0" stop-color="#97cbec"/>
      <stop offset="0.694" stop-color="#ccc2f5"/>
    </linearGradient>
  </defs>
  <g id="School" transform="translate(-75.106 -64.591)">
    <g id="Слой_1" data-name="Слой 1" transform="translate(145 162.067)">
      <g id="Сгруппировать_7" data-name="Сгруппировать 7" transform="translate(0 159.066)">
        <path id="Контур_216" data-name="Контур 216" d="M300.115,124.568c0,4.995-67.182,9.043-150.056,9.043S0,129.562,0,124.568s67.186-9.046,150.059-9.046S300.115,119.573,300.115,124.568Z" transform="translate(0 -115.522)" opacity="0.72" fill="url(#linear-gradient)"/>
      </g>
      <path id="Контур_217" data-name="Контур 217" d="M122.734,113.225a3.206,3.206,0,1,0,3.2-3.207,3.206,3.206,0,0,0-3.2,3.207Z" transform="translate(68.825 40.458)" fill="#4a3e46"/>
      <path id="Контур_218" data-name="Контур 218" d="M181.619,114.7l-.812,2.285-34.313-10.632,1.647-4.625Z" transform="translate(82.149 35.808)" fill="#4a3e46"/>
      <rect id="Прямоугольник_11" data-name="Прямоугольник 11" width="3.901" height="41.423" transform="translate(231.367 140.531) rotate(-180)" fill="#4a3e46"/>
      <path id="Контур_219" data-name="Контур 219" d="M124.787,114.8l.812,2.285,34.315-10.632-1.508-4.916Z" transform="translate(69.976 35.703)" fill="#4a3e46"/>
      <path id="Контур_220" data-name="Контур 220" d="M140.277,116.842V119.5l10.95-13.045-1.508-4.916Z" transform="translate(78.663 35.703)" fill="#4a3e46"/>
      <path id="Контур_221" data-name="Контур 221" d="M140.1,113.225a3.206,3.206,0,1,0,3.207-3.207,3.206,3.206,0,0,0-3.207,3.207Z" transform="translate(78.565 40.458)" fill="#4a3e46"/>
      <path id="Контур_222" data-name="Контур 222" d="M118.74,105.825a20.791,20.791,0,0,1-.742,4.71c-.52,1.858-1.559,9.052-2.887,10.058s-5.61,3.675-4.981,6.412,1.161,4.652,5.786,3.03,7.715-2.55,8.6-6.609a25.474,25.474,0,0,1,3.417-7.755l3.343,8.315,1.762-.709s-2.661-8.979-2.434-9.779-1.223-7.935-6.815-9.7S118.74,105.825,118.74,105.825Z" transform="translate(61.722 36.705)" fill="#b07042"/>
      <path id="Контур_223" data-name="Контур 223" d="M101.619,107.2a20.875,20.875,0,0,1-2.448,4.092c-1.174,1.53-4.821,7.819-6.427,8.255s-6.575,1.315-7.016,4.092-.657,4.749,4.24,4.967,8.109.512,10.445-2.922a25.438,25.438,0,0,1,6.065-5.917v8.958h1.9s.878-9.323,1.39-9.982,1.826-7.818-2.7-11.544S101.619,107.2,101.619,107.2Z" transform="translate(47.955 37.95)" fill="#b07042"/>
      <path id="Контур_224" data-name="Контур 224" d="M131.708,31.725s-1.087-3.859-1.2-4.361a8.065,8.065,0,0,0-2.42-2.547,9.415,9.415,0,0,0-3.753-1.8,1.453,1.453,0,0,0-1.035.622,2.8,2.8,0,0,0-.512,1.314,1.7,1.7,0,0,0-.9,1.364,1.476,1.476,0,0,0-.655,1.5,1.233,1.233,0,0,0-.6,1.218,11.274,11.274,0,0,1,1.3,1.485,23.5,23.5,0,0,0,5.038,3.943S130.143,36.8,131.708,31.725Z" transform="translate(67.645 -8.327)" fill="#eea886"/>
      <path id="Контур_225" data-name="Контур 225" d="M126.156,26.659a8.319,8.319,0,0,0-.366,2.146c.1.523-3.711.6-3.711.6S124.17,26.142,126.156,26.659Z" transform="translate(68.458 -6.318)" fill="#cf8c6c"/>
      <path id="Контур_226" data-name="Контур 226" d="M167.951,35.547c-1.536-2.491-3.59-3.612-10.106.895s-4.984,3.623-6.545,5.053a72.637,72.637,0,0,1-8.4,5A61.1,61.1,0,0,1,137,39.707c-2.16-3.18-6.665-11.671-6.665-11.671l-6.318,4.7s12.274,22.253,14.836,23.9,10.293-1.107,14.314-2.8,8.276-3.888,10.113-4.343S171.963,42.042,167.951,35.547Z" transform="translate(69.543 -5.515)" fill="#d88a51"/>
      <rect id="Прямоугольник_12" data-name="Прямоугольник 12" width="1.207" height="14.279" transform="translate(190.022 4.429) rotate(-12.474)" fill="#eb4747"/>
      <path id="Контур_227" data-name="Контур 227" d="M124.7,23.283s3.182,2.725,2.809,3.292a1.079,1.079,0,0,1-.858.55l.8,1.715s-.11,1.437-1.645.895c0,0,.038,1.353-1.379.656,0,0-.377.9-1.091.7a14.01,14.01,0,0,1-2.689-2.046s-.29-.587.561-1.23a1.467,1.467,0,0,1,.669-1.5,1.547,1.547,0,0,1,.87-1.384s.093-1.793,1.6-1.9C124.354,23.021,124.568,23.165,124.7,23.283Z" transform="translate(67.631 -8.327)" fill="#db9c7c"/>
      <path id="Контур_228" data-name="Контур 228" d="M128.686,26.753a14.208,14.208,0,0,0-3.759-2.472c-.372-.122-.75-.174-1,.12s-.145,1.038.738,1.922a10.5,10.5,0,0,1,1.614,2.427S127.45,29.393,128.686,26.753Z" transform="translate(69.426 -7.675)" fill="#eea886"/>
      <path id="Контур_229" data-name="Контур 229" d="M132.881,44.474a14.622,14.622,0,0,1,.229-8.25,10.764,10.764,0,0,0,1.055,6.377C135.347,44.52,132.881,44.474,132.881,44.474Z" transform="translate(74.243 -0.924)" fill="#bd7947"/>
      <path id="Контур_230" data-name="Контур 230" d="M121.181,55.12s-3.442-25.486-9.435-36.6h8.816s9.877,17.4,8.025,34.982Z" transform="translate(62.664 -10.85)" fill="#eddad3"/>
      <path id="Контур_231" data-name="Контур 231" d="M117.278,30.7s-1-1.875-1.248-2.486-1.228.45-1.079,1.236S117.278,30.7,117.278,30.7Z" transform="translate(64.452 -5.515)" fill="#eea886"/>
      <path id="Контур_232" data-name="Контур 232" d="M111.428,34.547a4.288,4.288,0,0,0,.578,1.262s.617.584,1.029,1.026a4.5,4.5,0,0,1,.3.354,7.9,7.9,0,0,0,1.613,1.968c.879.709,4.24,2.9,4.24,2.9l2.375-2.536,1.9-1.974s-1.611-6.036-2.353-6.792a2.522,2.522,0,0,0-.226-.2,10.2,10.2,0,0,0-1.843-.98c-.149-.094-1.671-.945-2.158-.757a1.708,1.708,0,0,0-1.138,1.2,4.082,4.082,0,0,0-1.731,1.419,2.526,2.526,0,0,0-1.453,1.7S111.39,33.756,111.428,34.547Z" transform="translate(62.485 -5.096)" fill="#eea886"/>
      <path id="Контур_233" data-name="Контур 233" d="M101.423,75.8s5.83,13.111,9.99,22.468c.7,1.574,1.347,3.042,1.919,4.321.669,1.5,1.221,2.747,1.6,3.6,2.646,5.957,9.16,18.946,9.16,18.946s4.9.186,5.184-3.975c0,0-4.7-9.014-4.7-15.349s-.847-25-6.9-29.027C110.294,71.863,105.5,70.934,101.423,75.8Z" transform="translate(56.875 19.467)" fill="#eea886"/>
      <path id="Контур_234" data-name="Контур 234" d="M158.447,60.323a6.765,6.765,0,0,1-2.27,1.512c-1.038.285-18.433,1.608-26.472,4.256S110.985,70.44,109,72.708s-5.294,14.751-5.2,17.114-7.063,42.2-7.956,45.308c-.469,1.648,6.475,1.017,6.475,1.017s9.866-23.538,11.976-27.885c3.871-7.99,4.067-17.777,5.486-19.289s17.206-4.917,26.285-4.917,29.406.756,31.578-.474,15.792-10.211,10.119-22.22S158.447,60.323,158.447,60.323Z" transform="translate(53.732 10.022)" fill="#eea886"/>
      <path id="Контур_235" data-name="Контур 235" d="M110.817,69.867l14.358,27.646s4.341-10.282,11.907-12.052,37.769-.82,37.769-.82,13.859-17.531,1.989-26.73-25.727,1.446-25.727,1.446-2.861,3.1-4.246,3.173S134.389,62.316,110.817,69.867Z" transform="translate(62.143 9.139)" fill="#1d3b54"/>
      <path id="Контур_236" data-name="Контур 236" d="M90.147,119.308s4.385,1.1,6.062,0,7.4-10.75,9.288-11.331c0,0-1.835-3.719-6.475-1.017C99.023,106.96,91.387,117.7,90.147,119.308Z" transform="translate(50.552 38.191)" fill="#eea886"/>
      <path id="Контур_237" data-name="Контур 237" d="M113.3,120.542s4.478-.617,5.626-2.262,2.849-12.734,4.39-13.977c0,0-3.088-2.77-6.386,1.471C116.928,105.774,113.851,118.587,113.3,120.542Z" transform="translate(63.534 36.755)" fill="#eea886"/>
      <path id="Контур_238" data-name="Контур 238" d="M166.944,113.225a3.206,3.206,0,1,0,3.207-3.207A3.206,3.206,0,0,0,166.944,113.225Z" transform="translate(93.617 40.458)" fill="#4a3e46"/>
      <path id="Контур_239" data-name="Контур 239" d="M147.03,2.925a11.719,11.719,0,0,0-12.315,10.739,28.683,28.683,0,0,0,.878,4.411c.6,1.943-1.139,7.668-.684,7.949a12.389,12.389,0,0,0,2.326.643s2.018,6.255,4.213,6.2a18.2,18.2,0,0,0,14.423-9.549C159.785,15.54,160.993,3.6,147.03,2.925Z" transform="translate(75.544 -19.606)" fill="#eea886"/>
      <path id="Контур_240" data-name="Контур 240" d="M140.931,22.795s.268.877.575,2.178c.156.663.325,1.439.468,2.263a15.4,15.4,0,0,1,.044,6.725s4.851,1.683,8.688-5.179c0,0-1.646-7.391.494-11.872S140.931,22.795,140.931,22.795Z" transform="translate(79.029 -12.384)" fill="#eea886"/>
      <path id="Контур_241" data-name="Контур 241" d="M134.738,14.192s5.307,4.765,10.919,4.387c5.7-.384,9.4,6.738,9.4,6.738S163.542,14.67,156.7,6.06,133.525,3.509,134.738,14.192Z" transform="translate(75.521 -20.133)" fill="#1d3b54"/>
      <path id="Контур_242" data-name="Контур 242" d="M143.4,13.231a1.719,1.719,0,0,1,3-1.224c1.763,1.475-.611,6.6-2.061,6.1S143.373,14.345,143.4,13.231Z" transform="translate(80.36 -14.828)" fill="#eea886"/>
      <path id="Контур_243" data-name="Контур 243" d="M141.3,23.136c.156.663.325,1.439.468,2.263a24.078,24.078,0,0,0,6.777-6.339,27.305,27.305,0,0,1-7.244,4.076Z" transform="translate(79.236 -10.548)" fill="#a77860"/>
      <path id="Контур_244" data-name="Контур 244" d="M132.939,47.461c1.021,4.737,3.708,4.986,3.545,8.484s-1.209,3.8.6,9.313a27.606,27.606,0,0,1,.826,3.268c.026.133.052.268.076.4.114.637.216,1.279.3,1.911.162,1.171.278,2.315.357,3.358a6.962,6.962,0,0,1-1.789,4.823s17.7,10.6,29.848,9.115c0,0-3.146-13.222-4.881-17.763s-1.207-25.527.069-30.032c1.881-6.646-1.878-16.609-7.016-17.906l-7.967,3.689s-8.02,9.581-9.819,11.027S131.9,42.662,132.939,47.461Z" transform="translate(74.439 -8.657)" fill="#d88a51"/>
      <path id="Контур_245" data-name="Контур 245" d="M169.055,26.934c-2.247-1.873-5.5-5.08-10.25,1.264s-8.2,10.429-9.228,12.277-9.951,14.734-9.951,14.734-4.74-4.4-7.452-6.466c-3.058-2.329-11.386-11.006-11.386-11.006l-5.5,6.1s19.095,21.192,22.047,21.938,11.226-6.7,14.5-9.578,12.463-13.388,14.061-14.4S174.922,31.819,169.055,26.934Z" transform="translate(64.648 -7.53)" fill="#d88a51"/>
      <path id="Контур_246" data-name="Контур 246" d="M107.823,94.1c.7,1.574,1.347,3.042,1.919,4.321,2.146-6.889,1.966-18.408,1.966-18.408A65.661,65.661,0,0,1,107.823,94.1Z" transform="translate(60.464 23.632)" fill="#a77860"/>
      <rect id="Прямоугольник_13" data-name="Прямоугольник 13" width="61.336" height="6.749" transform="translate(260.561 100.529) rotate(-180)" fill="#6b5a65"/>
      <path id="Контур_247" data-name="Контур 247" d="M154.387,59.9s1.548,6.254-5.734,7.673-16.234,3.237-16.234,14.469H157.67Z" transform="translate(74.256 12.352)" fill="#6b5a65"/>
      <path id="Контур_248" data-name="Контур 248" d="M122.931,16.967l-1.043-1.92-.136,2.179Z" transform="translate(68.275 -12.799)" fill="#eea886"/>
      <path id="Контур_249" data-name="Контур 249" d="M182.926,110.764,204.37,20.64S165.6,14.583,160.984,31.992s-12.213,69.12-21.453,72.318S182.926,110.764,182.926,110.764Z" transform="translate(77.635 -10.234)" fill="#6b5a65"/>
      <path id="Контур_250" data-name="Контур 250" d="M135,51.253s.393,1.652.817,3.023l9.43-12.233Z" transform="translate(75.702 2.339)" fill="#bd7947"/>
      <path id="Контур_251" data-name="Контур 251" d="M152.874,12.251s-3.731,9.849-2.716,12.54A8.31,8.31,0,0,1,145.4,15.85C146.463,9.4,152.874,12.251,152.874,12.251Z" transform="translate(81.471 -14.719)" fill="#1d3b54"/>
      <path id="Контур_252" data-name="Контур 252" d="M141.531,27.294V25.345l8.274-4.03,2.866,3.309Z" transform="translate(79.366 -9.284)" fill="#d88a51"/>
      <path id="Контур_253" data-name="Контур 253" d="M86.4,137.975,77.152,76.466l1.782-.276L88.184,137.7Z" transform="translate(43.264 21.488)" fill="#5c5049"/>
      <path id="Контур_254" data-name="Контур 254" d="M79.168,137.975,69.916,76.466,71.7,76.19,80.944,137.7Z" transform="translate(39.207 21.488)" fill="#5c5049"/>
      <path id="Контур_255" data-name="Контур 255" d="M40.842,137.975l-1.781-.273L48.309,76.19l1.782.276Z" transform="translate(21.904 21.488)" fill="#5c5049"/>
      <path id="Контур_256" data-name="Контур 256" d="M87.842,104.6l7.244-76.222A145.387,145.387,0,0,0,74.76,27.134L63.252,104.6Z" transform="translate(35.47 -6.024)" fill="#fab46c"/>
      <rect id="Прямоугольник_14" data-name="Прямоугольник 14" width="24.59" height="3.873" transform="translate(98.722 94.707)" fill="#fab46c"/>
      <path id="Контур_257" data-name="Контур 257" d="M54.325,101.487,50.482,28.85s32.067-3.481,51.764-.48Z" transform="translate(28.309 -6.012)" fill="#fab46c"/>
      <path id="Контур_258" data-name="Контур 258" d="M80.554,20.557s4.95-14.522-4.5-19.025S58.585,3.539,57.066,7.06s-1.113,9.924.18,14.39,1.1,11.262-1.7,13.533a15.756,15.756,0,0,0-6.118,13.736c.108,4.768,18.76-12.2,18.76-12.2Z" transform="translate(27.689 -21.237)" fill="#fccca2"/>
      <path id="Контур_259" data-name="Контур 259" d="M62.626,119.174s-.294,10.262,1.172,10.88,7.013-2.951,9.461-6.479-3.068-11.742-3.973-16.275c-.377-1.9-4.689-5.31-6.789-4.332a10.253,10.253,0,0,0-3.635,3.483S64.208,110.116,62.626,119.174Z" transform="translate(33.007 36.407)" fill="#d4c3bd"/>
      <path id="Контур_260" data-name="Контур 260" d="M58.861,106.388a56.7,56.7,0,0,1,2.756,6.22c.937,2.718,1.113,10.241,1.7,10.764s5.236-1.821,5.856-4.633-1.268-8.439-3.057-11.4a18.332,18.332,0,0,0-3.622-4.437,4.669,4.669,0,0,0-3.635,3.483Z" transform="translate(33.007 36.469)" fill="#de9673"/>
      <path id="Контур_261" data-name="Контур 261" d="M65.54,105.681l4.994,7.29-.944.646-3.861-5.634Z" transform="translate(36.753 38.026)" fill="#d4c3bd"/>
      <path id="Контур_262" data-name="Контур 262" d="M60.757,55.029s2.44,4.123,0,7.126S41.893,73.4,42.014,78.169s3.131,12.221,4.21,14.112,5.071,9.741,7.141,14.333,14.053,26.573,16.394,31.526.9-19.816.9-19.816L58.679,83.2,86.67,55.928S83.283,48.386,60.757,55.029Z" transform="translate(23.56 8.088)" fill="#de9673"/>
      <path id="Контур_263" data-name="Контур 263" d="M68.31,24.38S60.544,26.1,57.462,27.9s-9.93,10.09-9.93,13.654,29.94,6.892,29.94,6.892L83.15,69.166s15.127-3.693,16.929-6.755S94.12,37.549,93.041,32.955,86.3,25.264,80,24.38A43.35,43.35,0,0,0,68.31,24.38Z" transform="translate(26.654 -7.787)" fill="#1b4d8f"/>
      <path id="Контур_264" data-name="Контур 264" d="M84.774,54.481s-.543,3.542.9,5.045,8.078,10.255,4.563,18.854c-3.23,7.9-9.491,7.749-9.491,7.749H71.062s2.811,14.215,1.905,23.582-5.185,30.76-5.274,31.842-4.1,4.458-5.266,2.747c0,0-.11-12.881-.739-17.745s-3.317-24.32-4.126-27.2-5.585-11.62-5.585-12.521-4.664-15,5.514-18.6S71.271,54.556,84.774,54.481Z" transform="translate(28.549 9.315)" fill="#eea886"/>
      <path id="Контур_265" data-name="Контур 265" d="M57.35,123S50.67,130.8,51.419,132.2s7.309,2.116,11.427.91,5-11.058,7.148-15.149c.9-1.713-.3-7.077-2.553-7.638a10.262,10.262,0,0,0-5.019.422S64.278,116.954,57.35,123Z" transform="translate(28.801 40.549)" fill="#e6d3cc"/>
      <path id="Контур_266" data-name="Контур 266" d="M61.042,110.886a56.565,56.565,0,0,1-1.768,6.568c-.98,2.7-5.578,8.661-5.449,9.439s5.22,1.876,7.472.078,4.324-7.354,4.786-10.782a18.339,18.339,0,0,0-.021-5.725,4.671,4.671,0,0,0-5.019.422Z" transform="translate(30.182 40.405)" fill="#eea886"/>
      <path id="Контур_267" data-name="Контур 267" d="M63.962,115.163l-.7,8.809-1.146-.092.542-6.808Z" transform="translate(34.834 43.343)" fill="#e6d3cc"/>
      <path id="Контур_268" data-name="Контур 268" d="M95.229,79.608c-3.05,8-9.491,7.749-9.491,7.749H76.052s-4.044-6.4-13.942-7.507a29.318,29.318,0,0,0-7.461.178c-.035.006-.067.011-.1.014-13.149,1.95-10.61,6.775-10.57,6.9a23.594,23.594,0,0,1-1.965-9.2c1.262-10.407,16.3-12.591,18.743-15.592s0-7.126,0-7.126c22.526-6.642,25.913.9,25.913.9.988-.137,3.518-1.6,4.6-1.6,0,0,1.125,2.46,1.919,4.682C93.886,60.972,98.535,70.926,95.229,79.608Z" transform="translate(23.56 8.088)" fill="#1b4d8f"/>
      <path id="Контур_269" data-name="Контур 269" d="M85.881,33.079l3.334,30.987H45.346L42.014,33.079Z" transform="translate(23.56 -2.687)" fill="#ded1c5"/>
      <rect id="Прямоугольник_15" data-name="Прямоугольник 15" width="7.325" height="2.788" transform="translate(108.938 58.591)" fill="#ded1c5"/>
      <rect id="Прямоугольник_16" data-name="Прямоугольник 16" width="139.71" height="4.219" transform="translate(38.676 61.379)" fill="#bc8551"/>
      <path id="Контур_270" data-name="Контур 270" d="M67.882,2.639s9.828,2.908,8.423,16.548-7.824,12.937-8.423,13.036-8.226.6-10.631-15.946S67.882,2.639,67.882,2.639Z" transform="translate(31.938 -19.867)" fill="#eea886"/>
      <path id="Контур_271" data-name="Контур 271" d="M70.943,21.029a22.526,22.526,0,0,0,.346,7.325c.87,2.808-11.447,2.885-11.441.575.012-2.623,1.262-4.813.079-9.31S70.943,21.029,70.943,21.029Z" transform="translate(33.561 -11.182)" fill="#eea886"/>
      <path id="Контур_272" data-name="Контур 272" d="M65.6,9.022s5.336,8.5,10.959,10.467c0,0,3.07-14.256-9.605-17.242s-10.691,14.4-9.744,19.032A37.64,37.64,0,0,1,65.6,9.022Z" transform="translate(31.682 -20.169)" fill="#fccca2"/>
      <path id="Контур_273" data-name="Контур 273" d="M60.835,20.285a6.653,6.653,0,0,0,8.863.424s-.413,2.588-3.99,2.923A4.983,4.983,0,0,1,60.835,20.285Z" transform="translate(34.114 -9.861)" fill="#a77860"/>
      <path id="Контур_274" data-name="Контур 274" d="M57.74,7.962S60.551,2.52,65.3,2.276a9.389,9.389,0,0,1,7.574,3.876A8.077,8.077,0,0,0,65.3,1.515C59.594,1.515,57.74,7.962,57.74,7.962Z" transform="translate(32.379 -20.389)" fill="#23344a"/>
      <path id="Контур_275" data-name="Контур 275" d="M72.918,24.41s-.177,9.438-7.662,9.718-5.929-9.054-5.929-9.054a26.011,26.011,0,0,1,13.591-.665Z" transform="translate(33.193 -7.887)" fill="#eea886"/>
      <rect id="Прямоугольник_17" data-name="Прямоугольник 17" width="3.103" height="106.483" transform="translate(175.283 65.598)" fill="#807066"/>
      <rect id="Прямоугольник_18" data-name="Прямоугольник 18" width="3.103" height="106.483" transform="translate(38.676 65.598)" fill="#807066"/>
      <g id="Asset_5" data-name="Asset 5" transform="translate(229.374 -79.238)">
        <g id="Слой_1-2" data-name="Слой 1">
          <path id="Контур_362" data-name="Контур 362" d="M49.3,0H0V43.264l7.527-7.528H49.3Z" fill="#518afa"/>
        </g>
      </g>
      <g id="Asset_5-2" data-name="Asset 5" transform="translate(23.58 -42.795)">
        <g id="Слой_1-3" data-name="Слой 1">
          <path id="Контур_362-2" data-name="Контур 362" d="M0,0H49.3V43.264l-7.527-7.528H0Z" fill="#518afa"/>
        </g>
      </g>
    </g>
    <g id="Сгруппировать_14" data-name="Сгруппировать 14" transform="translate(75.106 64.591)">
      <path id="Контур_212" data-name="Контур 212" d="M33.122,100.829A26.435,26.435,0,1,1,59.558,74.393a26.435,26.435,0,0,1-26.436,26.435Zm0-52.007A25.572,25.572,0,1,0,58.7,74.394,25.572,25.572,0,0,0,33.122,48.822Z" transform="translate(-6.688 64.939)" fill="#23d87d"/>
      <path id="Контур_213" data-name="Контур 213" d="M107.737,235.581a8.419,8.419,0,1,1-8.419-8.419,8.419,8.419,0,0,1,8.419,8.419Z" transform="translate(-7.786 6.877)" fill="#252f5a"/>
      <path id="Контур_214" data-name="Контур 214" d="M183.345,21.214,169.559,45.1h27.575Z" transform="translate(-7.597 -21.214)" fill="#ffa76c"/>
      <path id="Контур_215" data-name="Контур 215" d="M44.313,80.393l-.2-.723L36.789,52.311l28.078,7.524-.526.529Zm-6.3-26.861,6.748,25.192L63.2,60.283Z" transform="translate(289.415 46.333)" fill="#23d87d"/>
      <rect id="Прямоугольник_9" data-name="Прямоугольник 9" width="23.481" height="23.481" transform="translate(204.18 234.122) rotate(-45)" fill="#252f5a"/>
      <rect id="Прямоугольник_10" data-name="Прямоугольник 10" width="0.868" height="52.839" transform="translate(122.275 61.691) rotate(-45)" fill="#252f5a"/>
    </g>
  </g>
</svg>
