<svg xmlns="http://www.w3.org/2000/svg" xmlns:xlink="http://www.w3.org/1999/xlink" width="367.894" height="256.346" viewBox="0 0 367.894 256.346">
  <defs>
    <linearGradient id="linear-gradient" x1="0.598" y1="3.432" x2="0.407" y2="-2.286" gradientUnits="objectBoundingBox">
      <stop offset="0" stop-color="#97cbec"/>
      <stop offset="0.694" stop-color="#ccc2f5"/>
    </linearGradient>
    <radialGradient id="radial-gradient" cx="0.376" cy="0.208" r="0.68" gradientTransform="translate(-0.157 0) scale(1.418 1)" gradientUnits="objectBoundingBox">
      <stop offset="0.008" stop-color="#ffdd91"/>
      <stop offset="0.995" stop-color="#ffe655"/>
    </radialGradient>
    <linearGradient id="linear-gradient-2" x1="0.5" y1="-0.395" x2="0.5" y2="0.704" gradientUnits="objectBoundingBox">
      <stop offset="0.008" stop-color="#ffdd91"/>
      <stop offset="1" stop-color="#fff"/>
    </linearGradient>
    <linearGradient id="linear-gradient-3" x1="0.5" y1="-0.393" x2="0.5" y2="0.706" xlink:href="#linear-gradient-2"/>
    <linearGradient id="linear-gradient-4" x1="0.5" y1="-3.068" x2="0.5" y2="5.051" xlink:href="#linear-gradient-2"/>
    <linearGradient id="linear-gradient-5" y1="0.5" x2="1" y2="0.5" gradientUnits="objectBoundingBox">
      <stop offset="0" stop-color="#40d5e6"/>
      <stop offset="1" stop-color="#57f"/>
    </linearGradient>
    <linearGradient id="linear-gradient-6" x1="-125.011" y1="0.5" x2="-126.629" y2="0.5" gradientUnits="objectBoundingBox">
      <stop offset="0" stop-color="#ff9f55"/>
      <stop offset="1" stop-color="#ffd255"/>
    </linearGradient>
  </defs>
  <g id="individual" transform="translate(43.16 -4.886)">
    <g id="Сгруппировать_109" data-name="Сгруппировать 109" transform="translate(109.908 105.886)">
      <g id="Сгруппировать_9" data-name="Сгруппировать 9" transform="translate(-85.266 138.045)">
        <path id="Контур_303" data-name="Контур 303" d="M300.092,168.837c0,4.777-67.178,8.649-150.045,8.649S0,173.614,0,168.837s67.179-8.652,150.048-8.652S300.092,164.059,300.092,168.837Z" transform="translate(0 -160.185)" opacity="0.72" fill="url(#linear-gradient)"/>
      </g>
      <g id="bulb_1" transform="translate(14.765 -101)">
        <g id="Слой_1" data-name="Слой 1" transform="translate(0)">
          <path id="Контур_358" data-name="Контур 358" d="M129.446,54.59C129.3,24.265,100.2-.176,64.452,0S-.149,24.9,0,55.23A47.785,47.785,0,0,0,5.732,77.613c.02.04,19.955,38.54,22.933,75.142.085,17.121,16.513,30.918,36.693,30.819s36.472-14.059,36.388-31.18c2.617-36.648,22.192-75.365,22.192-75.365h0A47.808,47.808,0,0,0,129.446,54.59Z" transform="translate(0 0)" fill="url(#radial-gradient)"/>
          <g id="Сгруппировать_10" data-name="Сгруппировать 10" transform="translate(42.58 105.797)">
            <rect id="Прямоугольник_31" data-name="Прямоугольник 31" width="2.063" height="71.668" transform="translate(0 0.259) rotate(-7.207)" fill="url(#linear-gradient-2)"/>
          </g>
          <g id="Сгруппировать_11" data-name="Сгруппировать 11" transform="translate(80.447 105.575)">
            <rect id="Прямоугольник_32" data-name="Прямоугольник 32" width="2.062" height="71.668" transform="translate(2.048 71.427) rotate(-173.37)" fill="url(#linear-gradient-3)"/>
          </g>
          <g id="Сгруппировать_12" data-name="Сгруппировать 12" transform="translate(43.563 107.086)">
            <path id="Контур_359" data-name="Контур 359" d="M99.28,159.576l-7.772-7.7-7.566,7.644-7.515-7.439-7.309,7.385L60.969,151.4l1-1.007,7.14,7.068,7.31-7.384,7.514,7.439,7.566-7.645,7.775,7.7,7.131-7.2,1.008,1Z" transform="translate(-60.969 -149.875)" fill="url(#linear-gradient-4)"/>
          </g>
          <path id="Контур_360" data-name="Контур 360" d="M100.591,274.3l-41.432.2a8.327,8.327,0,0,1-8.368-8.285l-.08-16.305,58.085-.288.08,16.306a8.327,8.327,0,0,1-8.284,8.367Z" transform="translate(-14.478 -71.267)" fill="#d46946"/>
          <path id="Контур_361" data-name="Контур 361" d="M101.918,254.059l-51.751.255A12.5,12.5,0,0,1,37.6,241.869l-.135-27.144,76.764-.38.135,27.145A12.508,12.508,0,0,1,101.918,254.059Z" transform="translate(-10.696 -61.194)" fill="url(#linear-gradient-5)"/>
        </g>
      </g>
      <g id="Слой_1-2" data-name="Слой 1" transform="translate(29.245 -38.124)">
        <rect id="Прямоугольник_19" data-name="Прямоугольник 19" width="135.376" height="85.868" transform="translate(0 98.645)" fill="url(#linear-gradient-6)"/>
        <path id="Контур_277" data-name="Контур 277" d="M42.351,108.373a26.558,26.558,0,0,0-4.09,4.79c-1.936,2.9-7.073,3.058-7.293,7.02s6.984,4.084,10.764,2.795,4.357-5.16,6.642-6.129,3.476-1.75,3.3-3.639a23.217,23.217,0,0,0-1.444-4.956,15.709,15.709,0,0,1-2.257.546,18.745,18.745,0,0,1-5.625-.428Z" transform="translate(12.903 45.113)" fill="#fff"/>
        <path id="Контур_278" data-name="Контур 278" d="M65.172,35.962s-1.451,8.621-2.621,14.315h0a34.009,34.009,0,0,1-1.165,4.712A66.539,66.539,0,0,1,55,62.064c-5.845,6.017-13.565,13.592-13.565,13.592l-3.02-5.731s6.858-8.038,11.508-13.4c2.15-2.485,3.83-4.391,4.138-4.667.973-.87,2.1-9.437,3.686-16.5A28.433,28.433,0,0,1,62.51,24.4Z" transform="translate(16.009 10.169)" fill="#e64053"/>
        <path id="Контур_279" data-name="Контур 279" d="M55,52.615c-5.845,6.017-13.565,13.592-13.565,13.592l-3.02-5.731s6.858-8.038,11.508-13.4A9.755,9.755,0,0,1,55,52.615Z" transform="translate(16.009 19.618)" fill="#eea886"/>
        <path id="Контур_280" data-name="Контур 280" d="M79.2,106.73s1.984,2.194,3.157,3.524,5.668,3.709,5.693,7.659c.028,4.283-3.316,3.908-6.288,3.752a8.212,8.212,0,0,1-6.641-4.636c-1.256-2.425-4.586-3.063-4.822-5.019s1.546-5.477,1.546-5.477Z" transform="translate(29.286 44.395)" fill="#fff"/>
        <path id="Контур_281" data-name="Контур 281" d="M71.764,103.957l-.383,3.647s6.205,2.7,7.355.2l-.268-3.247Z" transform="translate(29.747 43.322)" fill="#5f8cc9"/>
        <path id="Контур_282" data-name="Контур 282" d="M39.339,106.475,39,109.115A13.027,13.027,0,0,0,46.883,109l.083-2.348Z" transform="translate(16.253 44.371)" fill="#5f8cc9"/>
        <path id="Контур_283" data-name="Контур 283" d="M88.506,75.934c.214.766-39.726,0-39.726,0s11.047-8.042,11.763-10.19-2.811-15.037-3.271-19.232c-.368-3.356-1.292-18.37.92-20.664,2.313-2.4,10.641-4.912,10.641-4.912l12.138.451a19.089,19.089,0,0,1,3.437,1.085c1.433.665,9.622,3.58,10.95,7.673s-8.17,17.25-8.17,17.25-.018.591-.048,1.561h0c-.036,1.292-.091,3.256-.14,5.385-.066,2.76-.119,5.8-.119,8.015a79.19,79.19,0,0,0,1.626,13.579Z" transform="translate(20.328 8.725)" fill="#e64053"/>
        <path id="Контур_284" data-name="Контур 284" d="M96.776,60.365s5.433,7.979,5.509,13.427-2.012,20.551-2.165,23.543-2.969,27.929-2.969,27.929-2.172,2.02-8.694-.513c0,0-1.44-23.647-1.594-26.179s-.154-14.194-1.612-15.882-10.28-6.981-11.428-7.979-21.2,3.788-23.3,4.333c-5.443,1.411-2.964,10.874-1.76,15.118,2.014,7.1,3.773,32.737,3.773,32.737s-3.877,1.65-10.363.256c0,0-12.744-46.291-13.155-50.894s-.609-12.193,30.8-17.965Z" transform="translate(12.058 24.294)" fill="#1b4d8f"/>
        <path id="Контур_285" data-name="Контур 285" d="M67.783,2.367S57.246-.008,59.649,13.252s4.942,14.306,11.3,11.561,5.791-11.241,6.11-15.407S71.142,2.513,67.783,2.367Z" transform="translate(24.709 0.918)" fill="#eea886"/>
        <path id="Контур_286" data-name="Контур 286" d="M63.315,28.254s4.668,4.948,12.046.451c0,0-1.651-10.722-.783-15.944s-9.622,8.091-9.622,8.091c.137.072.227.571.248,1.278a14.39,14.39,0,0,1-.107,2.126C64.879,25.993,64.337,27.828,63.315,28.254Z" transform="translate(26.385 4.812)" fill="#eea886"/>
        <path id="Контур_287" data-name="Контур 287" d="M69.3,9.061a1.345,1.345,0,0,1,2.64.155c.187,1.754-1.051,4.834-1.931,4.53S69.111,10.673,69.3,9.061Z" transform="translate(28.839 3.351)" fill="#eea886"/>
        <path id="Контур_288" data-name="Контур 288" d="M76.723,17.127s-.271-4.178-1.8-4.308-1.757,1.552-1.757,1.552l-1.544.291s.488-3.662-1.038-4.3-9.871,2.016-11.1.941-.647-8.5,1.562-9.521,8.326-3.294,12.8-.263c0,0,3.489-.4,4.007,2.417S77.674,15.034,76.723,17.127Z" transform="translate(24.528 0)" fill="#3a3f47"/>
        <path id="Контур_289" data-name="Контур 289" d="M64.572,22.577c7.609-2.346,8.181-6.927,8.189-7-2.5,4.306-8.082,4.873-8.082,4.873a14.392,14.392,0,0,1-.107,2.126Z" transform="translate(26.909 6.492)" fill="#a77860"/>
        <path id="Контур_290" data-name="Контур 290" d="M79.6,22.738S74.029,33.832,65.028,33.116,63.493,21.25,63.9,21.146C64.35,21.033,73.137,18.845,79.6,22.738Z" transform="translate(25.257 8.515)" fill="#eea886"/>
        <path id="Контур_291" data-name="Контур 291" d="M45.556,60.368s27.58,3.4,44.293.562L57.917,56.941S57.728,57.756,45.556,60.368Z" transform="translate(18.984 23.729)" fill="#e64053"/>
        <path id="Контур_292" data-name="Контур 292" d="M60.724,56.054l-2.059,1.04s.47,3.264,1.594,4.253l2.308-.588S62.084,57.179,60.724,56.054Z" transform="translate(24.447 23.359)" fill="#eea886"/>
        <path id="Контур_293" data-name="Контур 293" d="M92.035,61.617c-.412.476-5.834,2.655-11.962,5.015h0c-8.367,3.225-17.81,6.274-17.81,6.274L60.118,68.3S70,62.93,76.683,59.162c3.153-1.781,5.6-3.2,5.94-3.529,1.074-1.025,1.35-2.665.563-5.525S80.576,34.1,80.372,32.564s.512-5.627,4.347-5.832a11.52,11.52,0,0,1,5.79.879s.962.4,1.677,9.71S93,60.49,92.035,61.617Z" transform="translate(25.053 11.113)" fill="#e64053"/>
        <path id="Контур_294" data-name="Контур 294" d="M76.547,44.019h0c-.036,1.292-.091,3.256-.14,5.385A26.908,26.908,0,0,1,74.862,32.78C74.458,35.27,76.518,43.895,76.547,44.019Z" transform="translate(30.92 13.66)" fill="#a32d3b"/>
        <path id="Контур_295" data-name="Контур 295" d="M55.966,45.431h0A34.009,34.009,0,0,1,54.8,50.144a48.663,48.663,0,0,1-.129-14.112,79.368,79.368,0,0,0,1.293,9.4Z" transform="translate(22.595 15.015)" fill="#a32d3b"/>
        <path id="Контур_296" data-name="Контур 296" d="M80.073,57.073h0c-8.367,3.225-18.112,6.374-18.112,6.374l-1.843-4.705S70,53.371,76.683,49.6C76.683,49.6,79.113,50.785,80.073,57.073Z" transform="translate(25.053 20.671)" fill="#eea886"/>
        <path id="Контур_297" data-name="Контур 297" d="M71.229,59.738l-39.2-.578,19.79,10.05Z" transform="translate(13.346 24.654)" fill="#5e5853"/>
        <path id="Контур_298" data-name="Контур 298" d="M46.445,69.04l19.413-7.517V59.568L44.912,67.125Z" transform="translate(18.716 24.824)" fill="#91887f"/>
        <path id="Контур_299" data-name="Контур 299" d="M63,57.1s-2.45-.379-4.142-.775c-1.31-.3-4.568.115-5.4.956s-3.469,6.7-3.965,7.056.253,1.184,1.13.768c0,0,.805,2.562,2.789,1.6s3.334-3.056,4.373-3.424,7.1-2.23,7.1-2.23S64.559,56.471,63,57.1Z" transform="translate(20.559 23.429)" fill="#eea886"/>
        <path id="Контур_300" data-name="Контур 300" d="M54.006,56.7a16.963,16.963,0,0,0-1.984,1.1c-.408.337-2.074,1.584-2.478,1.877s.607,1.126,3.583-.163S54.006,56.7,54.006,56.7Z" transform="translate(20.611 23.627)" fill="#eea886"/>
        <path id="Контур_301" data-name="Контур 301" d="M60.482,75.619,48.823,43.782l-37.594.612L22.343,73.736Z" transform="translate(4.679 18.245)" fill="#6e6760"/>
        <path id="Контур_302" data-name="Контур 302" d="M31.152,54.6c1.146,2.293.8,4.79-.776,5.578s-3.779-.435-4.927-2.727-.8-4.791.772-5.578S30,52.3,31.152,54.6Z" transform="translate(10.323 21.516)" fill="#807066"/>
      </g>
      <g id="Asset_2" data-name="Asset 2" transform="translate(-59.543 71.91)">
        <g id="OBJECTS" transform="translate(0)">
          <path id="Контур_363" data-name="Контур 363" d="M47.188,53.084s10.851-5.382,7.9-13.542-4.775-8.507.868-13.108,13.8-16.147,3.472-17.015-9.809,12.848-18.4,14.758S27.742,62.025,47.188,53.084Z" transform="translate(-9.588 -2.678)" fill="#83b6ec"/>
          <path id="Контур_364" data-name="Контур 364" d="M40.67,53.892c2.084.966,4.886.872,8.54-.809,0,0,10.851-5.382,7.9-13.542s-4.775-8.507.868-13.108,13.8-16.147,3.472-17.015a9.5,9.5,0,0,0-2.754.148c2.907,1.208,5.8,3.6,2.061,8.037-6.224,7.382-9.553,9.987-8.829,14.763C52.635,37.024,52.234,47.6,40.67,53.892Z" transform="translate(-11.611 -2.677)" fill="#476488" opacity="0.25"/>
          <path id="Контур_365" data-name="Контур 365" d="M19.2,57.381s-9.549-.347-9.028-7.205.786-7.126-5.209-9.289c-10.591-3.819-2.206-24.161,6.424-11.372,5.99,8.876,8.594,6.88,12.5,7.574S36.3,60.419,19.2,57.381Z" transform="translate(0 -7.235)" fill="#83b6ec"/>
          <path id="Контур_366" data-name="Контур 366" d="M24.173,37.09c-3.906-.695-6.511,1.3-12.5-7.574-4.517-6.694-8.962-4.307-10.658.032,2.541-.778,6.4-1.246,6.882,2.89C8.52,37.8,21.073,46.613,20.817,57.565c.167.018.328.03.489.042,1.826-4.816,4.237-11.064,6.3-16.387C26.5,38.926,25.185,37.27,24.173,37.09Z" transform="translate(-0.29 -7.236)" fill="#476488" opacity="0.29"/>
          <path id="Контур_367" data-name="Контур 367" d="M26.508,49.842S14.658,38.253,18.695,36.3s11.98,4.427,7.552-2.474-9.582-17.651-3.462-15.958,6.564,3.553,5.806-4.485c-.98-10.4,4.818-15.756,10.287-12.37s-4.688,26.3-.912,23.829,6.9-4.557,7.683-1.563S34.838,38.032,39.138,36.039c5.339-2.474,6.12,1.953,4.427,4.688S34.841,59.738,26.508,49.842Z" transform="translate(-5.098)" fill="#476488"/>
          <path id="Контур_368" data-name="Контур 368" d="M48.111,40.728c1.693-2.735.911-7.162-4.427-4.688-4.3,1.993,7.292-9.766,6.511-12.761s-3.906-.911-7.683,1.563S48.892,4.4,43.423,1.013a5.581,5.581,0,0,0-7.12.6c2.831.692,5.1,2.97,3.526,9.118-3.329,13.027-5.355,23.882.724,20.7,5.726-3-6.65,10.823-6.776,20.785C40.882,56.272,46.606,43.158,48.111,40.728Z" transform="translate(-9.643 -0.001)" fill="#2c3c4d" opacity="0.48"/>
          <path id="Контур_369" data-name="Контур 369" d="M18.476,70.813,20.77,91.576a5.122,5.122,0,0,0,5.091,4.56H39.1a5.122,5.122,0,0,0,5.091-4.56l2.293-20.763a1.908,1.908,0,0,0-1.9-2.117H20.373a1.908,1.908,0,0,0-1.9,2.117Z" transform="translate(-5.272 -19.612)" fill="#d3e3eb"/>
          <path id="Контур_370" data-name="Контур 370" d="M49.474,68.7H41.08a1.908,1.908,0,0,1,1.9,2.117L40.683,91.576a5.122,5.122,0,0,1-5.091,4.56h8.395a5.122,5.122,0,0,0,5.091-4.56l2.293-20.763a1.908,1.908,0,0,0-1.9-2.117Z" transform="translate(-10.161 -19.612)" fill="#b0c4cb"/>
        </g>
      </g>
    </g>
    <g id="Сгруппировать_15" data-name="Сгруппировать 15" transform="translate(-43.16 5.255)">
      <path id="Контур_212" data-name="Контур 212" d="M33.122,100.829A26.435,26.435,0,1,1,59.558,74.394a26.435,26.435,0,0,1-26.436,26.435Zm0-52.007A25.572,25.572,0,1,0,58.7,74.394,25.572,25.572,0,0,0,33.122,48.822Z" transform="translate(-6.688 37.777)" fill="#23d87d"/>
      <path id="Контур_213" data-name="Контур 213" d="M107.737,235.581a8.419,8.419,0,1,1-8.419-8.419,8.419,8.419,0,0,1,8.419,8.419Z" transform="translate(218.467 -168.665)" fill="#252f5a"/>
      <path id="Контур_214" data-name="Контур 214" d="M183.345,21.214,169.559,45.1h27.575Z" transform="translate(156.645 183.958)" fill="#ffa76c"/>
      <path id="Контур_215" data-name="Контур 215" d="M44.313,80.393l-.2-.723L36.789,52.311l28.078,7.524-.526.529Zm-6.3-26.861,6.748,25.192L63.2,60.283Z" transform="translate(47.025 162.672)" fill="#23d87d"/>
      <rect id="Прямоугольник_9" data-name="Прямоугольник 9" width="23.481" height="23.481" transform="translate(86.743 16.603) rotate(-45)" fill="#252f5a"/>
      <rect id="Прямоугольник_10" data-name="Прямоугольник 10" width="0.868" height="52.839" transform="translate(122.275 120.434) rotate(-45)" fill="#252f5a"/>
    </g>
  </g>
</svg>
