<svg xmlns="http://www.w3.org/2000/svg" xmlns:xlink="http://www.w3.org/1999/xlink" width="370" height="257.692" viewBox="0 0 370 257.692">
  <defs>
    <linearGradient id="linear-gradient" x1="0.598" y1="3.432" x2="0.407" y2="-2.286" gradientUnits="objectBoundingBox">
      <stop offset="0" stop-color="#97cbec"/>
      <stop offset="0.694" stop-color="#ccc2f5"/>
    </linearGradient>
  </defs>
  <g id="bussiness" transform="translate(-40 -92.65)">
    <g id="Слой_1" data-name="Слой 1" transform="translate(110.001 93.995)">
      <g id="Сгруппировать_8" data-name="Сгруппировать 8" transform="translate(0 239.05)">
        <path id="Контур_303" data-name="Контур 303" d="M300,168.834c0,4.776-67.157,8.646-150,8.646S0,173.61,0,168.834s67.158-8.649,150-8.649S300,164.058,300,168.834Z" transform="translate(0 -160.185)" opacity="0.72" fill="url(#linear-gradient)"/>
      </g>
      <rect id="Прямоугольник_20" data-name="Прямоугольник 20" width="3.518" height="159.888" transform="translate(241.7 68.315)" fill="#706865"/>
      <path id="Контур_304" data-name="Контур 304" d="M107.706,1.018h94.625A10.558,10.558,0,0,1,212.89,11.576V190.754a10.558,10.558,0,0,1-10.559,10.558H107.7a10.557,10.557,0,0,1-10.557-10.557V11.576A10.559,10.559,0,0,1,107.706,1.018Z" transform="translate(47.83 0.501)" fill="#bdafaa"/>
      <path id="Контур_305" data-name="Контур 305" d="M109.708,3.179h88.525a10.432,10.432,0,0,1,10.432,10.432V181.989a10.433,10.433,0,0,1-10.433,10.433H109.708A10.432,10.432,0,0,1,99.276,181.99V13.611A10.432,10.432,0,0,1,109.708,3.179Z" transform="translate(48.878 1.565)" fill="#fff"/>
      <rect id="Прямоугольник_21" data-name="Прямоугольник 21" width="34.49" height="7.788" transform="translate(185.604)" fill="#706865"/>
      <path id="Контур_306" data-name="Контур 306" d="M114.585,40.068a29.59,29.59,0,0,1,29.558-29.557v1.323a28.207,28.207,0,1,0,27.929,24.092l1.31-.194a29.559,29.559,0,1,1-58.8,4.336Z" transform="translate(56.415 5.175)" fill="#b5deff"/>
      <path id="Контур_307" data-name="Контур 307" d="M91.857,93.051a6.891,6.891,0,0,1,.893,2.362A11.362,11.362,0,0,0,93.841,98.2a26.751,26.751,0,0,1,1.326,4.649,21.173,21.173,0,0,0-.625,3.111c.106.672.49,2.007-.114,2.1s-1.289-1.006-1.289-1.006a.89.89,0,0,1-.454.857,1.5,1.5,0,0,1-1.522.055s-.366.681-.826.772a1.874,1.874,0,0,1-1.514-.2,1.831,1.831,0,0,1-1.148.369,1.506,1.506,0,0,1-1.274-.793s-1.137.229-1.466-.3a5.082,5.082,0,0,1-.409-1.577,18.353,18.353,0,0,1,1.439-7.944,7.04,7.04,0,0,0-.375-6.172Z" transform="translate(41.607 45.352)" fill="#eea886"/>
      <path id="Контур_308" data-name="Контур 308" d="M93.328,103.745s.1-3.894-.925-4.722-1.14.576-1.14.576.139-1.387-.982-1.577-1.167,1.463-1.167,1.463a1.082,1.082,0,0,0-1.358-.851c-1.177.218-.9,1.586-.9,1.586s-1.124-1.339-1.853-.051a5.931,5.931,0,0,0-.112,4.764s.4.616,1.517.328a1.575,1.575,0,0,0,2.448.447s1.731.947,2.357-.567C91.215,105.141,93.247,105.934,93.328,103.745Z" transform="translate(41.578 48.253)" fill="#db9c7c"/>
      <path id="Контур_309" data-name="Контур 309" d="M105.01,58.163s-6.665,22.215-8.917,30.406c-.706,2.569-2.416,27.111-2.717,28.1s-8.757,2.343-8.757,2.343,1.024-30.7,1.12-32.377,9.328-35.959,12.013-37.182c2.011-.917,3.074-.159,5.609,1.723C106.918,53.817,105.01,58.163,105.01,58.163Z" transform="translate(41.662 24.157)" fill="#ffc655"/>
      <rect id="Прямоугольник_22" data-name="Прямоугольник 22" width="18.232" height="1.354" transform="matrix(0.837, -0.547, 0.547, 0.837, 211.668, 51.197)" fill="#4da8f2"/>
      <path id="Контур_310" data-name="Контур 310" d="M157.349,33a3.974,3.974,0,0,1-.394,1.208s-.5.595-.829,1.041a3.967,3.967,0,0,0-.238.354,7.352,7.352,0,0,1-1.261,1.959c-.729.736-3.556,3.079-3.556,3.079l-2.427-2.056-2.517-1.128a47.216,47.216,0,0,1,2.008-6.892c.058-.074.12-.146.179-.21a9.566,9.566,0,0,1,1.58-1.086c.122-.1,1.418-1.035,1.879-.914a1.564,1.564,0,0,1,1.166.971,3.723,3.723,0,0,1,1.723,1.109,2.314,2.314,0,0,1,1.5,1.392S157.3,32.279,157.349,33Z" transform="translate(71.945 13.956)" fill="#efaa88"/>
      <path id="Контур_311" data-name="Контур 311" d="M97.294,156.973s-.609,4.218-.684,4.85-6.759-.372-6.759-.372l-.541-5.021S96.457,156.379,97.294,156.973Z" transform="translate(43.971 77.017)" fill="#424773"/>
      <path id="Контур_312" data-name="Контур 312" d="M97.025,159.78a18.072,18.072,0,0,0,4.164,3.649c2.048,1.106,5.266,1.545,6.477,2.692.874.828,3.183,4.391-5.322,4.318s-12.6.5-13.516-.861,1.317-10.085,1.317-10.085a18,18,0,0,0,6.879.287Z" transform="translate(43.626 78.525)" fill="#292c47"/>
      <path id="Контур_313" data-name="Контур 313" d="M129.378,156.973s-.608,4.218-.683,4.85-6.758-.372-6.758-.372l-.542-5.021S128.543,156.379,129.378,156.973Z" transform="translate(59.768 77.017)" fill="#424773"/>
      <path id="Контур_314" data-name="Контур 314" d="M129.11,159.78a18.094,18.094,0,0,0,4.164,3.649c2.049,1.106,9.585,2.017,10.8,3.164.874.828,2.327,4.159-9.639,3.846-8.5-.22-12.606.5-13.517-.861s1.317-10.085,1.317-10.085S124.131,160.268,129.11,159.78Z" transform="translate(59.423 78.525)" fill="#292c47"/>
      <path id="Контур_315" data-name="Контур 315" d="M103.173,84.184s-6.281,9.977-5.812,19-2.277,18.863-3.221,28.283c-1.051,10.5-5.354,35.364-5.51,40.984S89.3,196,89.3,196l8.614.2s7.236-43.464,9.11-47.9,11.165-36.054,11.478-39.6S103.173,84.184,103.173,84.184Z" transform="translate(43.626 41.447)" fill="#292c47"/>
      <path id="Контур_316" data-name="Контур 316" d="M132.466,86.1s4.731,24.716,5.354,30.236,1.042,26.709,1.354,30.16,2.919,45.037,3.748,50.266H131.909s-8.454-30.307-8.454-44.648-6.532-31.175-10.747-40.637S98.843,101.8,96.25,84.242C96.25,84.242,128.956,80.535,132.466,86.1Z" transform="translate(47.388 40.881)" fill="#292c47"/>
      <path id="Контур_317" data-name="Контур 317" d="M107.129,28.236s8.428-3.149,12.315,3.266,3.511,19.261-.737,20.84-10.63.753-12.8-3.263-4.139-9.817-4.044-13.695S104.915,29.356,107.129,28.236Z" transform="translate(50.147 13.521)" fill="#eea886"/>
      <path id="Контур_318" data-name="Контур 318" d="M117,46.97a7.271,7.271,0,0,0,.227,3.4c.58,1.121-10.919,1.15-10.919,1.15a75.6,75.6,0,0,0-2.7-11.246C101.837,35.116,117,46.97,117,46.97Z" transform="translate(50.939 19.187)" fill="#eea886"/>
      <path id="Контур_319" data-name="Контур 319" d="M104.629,46.255s.793,1.307,4.032.8,7.192-4.818,8.545-5.292,1.367-1.268,1.367-1.268l.847,1.239,1.435.09s-1.31-3.856.668-5.429-2.052-12.478-12.442-8.848c0,0-7.981,2.2-7.689,6.737S102.844,43.993,104.629,46.255Z" transform="translate(49.916 13.201)" fill="#292c47"/>
      <path id="Контур_320" data-name="Контур 320" d="M117.4,47.556s-.036-2.142-1.007-2.346-10.714-1.144-11.907-.675v2.5S106.786,48.442,117.4,47.556Z" transform="translate(51.445 21.863)" fill="#e2d2ca"/>
      <path id="Контур_321" data-name="Контур 321" d="M113.757,35.422c-.182-.762-2.117-2.938-2.858-.608s1.119,5.462,2.158,5.193S114.217,37.352,113.757,35.422Z" transform="translate(54.516 16.625)" fill="#eea886"/>
      <path id="Контур_322" data-name="Контур 322" d="M139.52,56.071c-6.68-.88-16.118-3.243-16.118-3.243L110.488,52.3s-11.852,2.61-16.521,4.719c-.443.2-.444,10.573-1.659,13.293l3.87,8.167s2.236,16.172,2.7,23.364c.212,3.3-4.611,30.963-4.611,30.963a88.987,88.987,0,0,0,13.981,2.494c8.816.972,30.838-.351,30.976-1.392s-4.264-38.765-4.46-40.719c-.3-3,1.035-18.93,1.035-18.93,2.034-1.578,19.9-9.874,24.775-14.193,1.306-1.159,6.81-6.52,8.376-8.371a150.463,150.463,0,0,0,10.64-13.387c.628-.691-6.229-4.409-6.834-4.61-.528-.175-7.813,9.636-10.7,12.759a81.139,81.139,0,0,1-6.631,5.28S143.7,56.313,139.52,56.071Z" transform="translate(45.447 16.59)" fill="#ffc655"/>
      <path id="Контур_323" data-name="Контур 323" d="M105.389,28.488s-10.747.841-.331,16.942Z" transform="translate(49.487 14.026)" fill="#292c47"/>
      <path id="Контур_324" data-name="Контур 324" d="M152.8,28.822l.882-1.345-1.624.21Z" transform="translate(74.866 13.528)" fill="#dfe1e8"/>
      <path id="Контур_325" data-name="Контур 325" d="M40.329,159.778a30.205,30.205,0,0,1-2.566,4.047c-1.015,1.15-4.9,3.2-4.922,6.621-.023,3.7,6.549,2.674,9.119,2.539s2.765-2.113,3.848-4.21,2.172-1.742,2.375-3.432a20,20,0,0,0-1.048-5.564Z" transform="translate(16.169 78.666)" fill="#202338"/>
      <path id="Контур_326" data-name="Контур 326" d="M68.084,113.1s-7.238-16.87-8.11-21.022c-.394-1.882-1.481-6.558-2.168-10.4-.228-1.265-.418-2.569-.581-3.845v-.006c-.644-5.093-.81-9.742-.81-9.742S52.571,54.906,60.809,54.1a20.237,20.237,0,0,1,3.032,1.249c1.387,3.24,1.934,11.5,1.983,13.288.038,1.451,2.169,16.1,2.2,16.615.061,1.007,2.25,6.287,3.426,10.2,2.562,8.53,3.912,15.26,3.912,15.26Z" transform="translate(27.334 26.636)" fill="#323657"/>
      <rect id="Прямоугольник_23" data-name="Прямоугольник 23" width="37.127" height="32.476" transform="translate(79.01 110.461)" fill="#e2e3ed"/>
      <rect id="Прямоугольник_24" data-name="Прямоугольник 24" width="2.067" height="9.986" transform="translate(103.105 127.196)" fill="#aab1e0"/>
      <rect id="Прямоугольник_25" data-name="Прямоугольник 25" width="2.066" height="7.361" transform="translate(105.976 129.821)" fill="#aab1e0"/>
      <rect id="Прямоугольник_26" data-name="Прямоугольник 26" width="2.066" height="11.233" transform="translate(108.83 125.948)" fill="#aab1e0"/>
      <path id="Контур_327" data-name="Контур 327" d="M75.925,94.829s-.214,4.376-2.567,5.136a8.016,8.016,0,0,1-6-.583c-1.084-.665-3.81-2.591-2.792-3.8C67.836,91.691,75.925,94.829,75.925,94.829Z" transform="translate(31.68 46.099)" fill="#eea886"/>
      <path id="Контур_328" data-name="Контур 328" d="M71.3,97.77s2.937.214,2.779-1.03-2.274-.762-2.274-.762Z" transform="translate(35.105 47.208)" fill="#eea886"/>
      <rect id="Прямоугольник_27" data-name="Прямоугольник 27" width="2.066" height="7.602" transform="translate(94.125 129.58)" fill="#aab1e0"/>
      <rect id="Прямоугольник_28" data-name="Прямоугольник 28" width="2.066" height="8.368" transform="translate(97.066 128.814)" fill="#aab1e0"/>
      <rect id="Прямоугольник_29" data-name="Прямоугольник 29" width="2.066" height="6.775" transform="translate(100.046 130.407)" fill="#aab1e0"/>
      <rect id="Прямоугольник_30" data-name="Прямоугольник 30" width="2.068" height="6.775" transform="translate(91.082 130.407)" fill="#aab1e0"/>
      <path id="Контур_329" data-name="Контур 329" d="M56.91,84.027a.872.872,0,0,0,.058.083l-.084.055-2.214,1.5-.056-.085,2.214-1.494Z" transform="translate(26.889 41.37)" fill="#aab1e0"/>
      <path id="Контур_330" data-name="Контур 330" d="M63.666,84.569a.637.637,0,0,0-.011.1l-.1-.01-6.34-.753-.1-.013a.758.758,0,0,0,.013-.1l.1.01,6.338.753Z" transform="translate(28.12 41.255)" fill="#aab1e0"/>
      <path id="Контур_331" data-name="Контур 331" d="M67.3,81.161l-.074.066-4.7,4.266-.074.067c-.02-.025-.043-.05-.066-.074l.074-.067,4.7-4.266.074-.066C67.254,81.112,67.276,81.138,67.3,81.161Z" transform="translate(30.712 39.923)" fill="#aab1e0"/>
      <path id="Контур_332" data-name="Контур 332" d="M72.928,80.778c0,.017,0,.034,0,.051H66.56c0-.017,0-.034,0-.051s0-.033,0-.05h6.37C72.928,80.745,72.928,80.763,72.928,80.778Z" transform="translate(32.77 39.746)" fill="#aab1e0"/>
      <path id="Контур_333" data-name="Контур 333" d="M75.9,77.4l-4.079,4.446-.069.074a.729.729,0,0,0-.073-.069l.067-.074,4.078-4.446Z" transform="translate(35.289 38.071)" fill="#aab1e0"/>
      <path id="Контур_334" data-name="Контур 334" d="M56.892,83.177a.878.878,0,0,0-.877.877.866.866,0,0,0,.123.447.832.832,0,0,0,.056.083.878.878,0,0,0,1.563-.376c.007-.035.01-.067.013-.1v-.054a.878.878,0,0,0-.879-.877Zm.764,1.019a.777.777,0,0,1-1.379.334.875.875,0,0,1-.058-.083.778.778,0,1,1,1.449-.392V84.1a.758.758,0,0,1-.013.1Z" transform="translate(27.579 40.951)" fill="#aab1e0"/>
      <path id="Контур_335" data-name="Контур 335" d="M62.989,84.147a.9.9,0,0,0-.066-.074.877.877,0,0,0-1.481.472c0,.033-.01.066-.011.1,0,.018,0,.035,0,.054a.877.877,0,1,0,1.559-.552Zm-.682,1.329a.778.778,0,0,1-.778-.777v-.044a.638.638,0,0,1,.011-.1.779.779,0,0,1,1.307-.417c.023.025.046.05.066.074a.77.77,0,0,1,.17.485.778.778,0,0,1-.777.777Z" transform="translate(30.244 41.268)" fill="#aab1e0"/>
      <path id="Контур_336" data-name="Контур 336" d="M67.2,81a.877.877,0,1,0-1.558.6.675.675,0,0,0,.066.074A.877.877,0,0,0,67.2,81.1c0-.017,0-.034,0-.051S67.206,81.018,67.2,81Zm-.875.828a.78.78,0,0,1-.542-.219c-.023-.023-.046-.05-.066-.074A.778.778,0,1,1,67.1,81c0,.016,0,.035,0,.05s0,.034,0,.051a.777.777,0,0,1-.775.727Z" transform="translate(32.225 39.473)" fill="#aab1e0"/>
      <path id="Контур_337" data-name="Контур 337" d="M72.267,80.44c-.024-.025-.047-.045-.074-.068a.871.871,0,0,0-.555-.2.881.881,0,0,0-.877.828v.1a.878.878,0,1,0,1.506-.662Zm-.629,1.389a.778.778,0,0,1-.776-.727c0-.017,0-.033,0-.051s0-.033,0-.05a.776.776,0,0,1,.776-.727.785.785,0,0,1,.488.172.731.731,0,0,1,.073.069.771.771,0,0,1,.217.536.779.779,0,0,1-.778.778Z" transform="translate(34.838 39.473)" fill="#aab1e0"/>
      <path id="Контур_338" data-name="Контур 338" d="M27.7,94.049s-1.276,2.225-2.789,2.182a9.151,9.151,0,0,0-3.538,1.042c-.71.338-3.275.628-2.855,1.459s4.245-.286,5.092-.372-1.358,2.886-1.315,3.713,5.375,3.833,6.644,1.637,1.1-5.285,1.409-5.631a15.637,15.637,0,0,0,.988-1.567Z" transform="translate(9.092 46.304)" fill="#eea886"/>
      <path id="Контур_339" data-name="Контур 339" d="M22.212,99.04s-3.415,6.953-3.236,7.584.586.771.934.133,3.5-6.635,3.5-6.635-2.591,8.826-2.566,9.377c.015.322.784.638,1,.311s3.315-8.95,3.315-8.95-2.4,8.243-2.236,8.693a.638.638,0,0,0,1.157-.087c.224-.6,2.91-8.145,2.91-8.145s-1.353,6.092-.967,6.386c.234.181.883.482,1.179-1.1s1.411-5.252,1.411-5.252Z" transform="translate(9.339 48.762)" fill="#eea886"/>
      <path id="Контур_340" data-name="Контур 340" d="M66.674,159.758s3.168,3.537,6.383,4.277,5.465,1.686,5.488,3.715-9.252,3.367-12.932,1.32c-5.491-3.052-6.05-2.132-6.658-3.657s.732-5.608.692-6.095C59.6,158.722,66.674,159.758,66.674,159.758Z" transform="translate(28.948 78.348)" fill="#202338"/>
      <path id="Контур_341" data-name="Контур 341" d="M66.04,158.747a14.437,14.437,0,0,1,.355,1.691c-.062.036-7.244.892-7.027-.439.176-1.078.428-2.247.428-2.247Z" transform="translate(29.227 77.668)" fill="#81807e"/>
      <path id="Контур_342" data-name="Контур 342" d="M44.669,159.235a13.965,13.965,0,0,1,.242,1.618c-.058.038-7.283,1.329-7.242.017a6.3,6.3,0,0,1,.667-2.257Z" transform="translate(18.546 78.092)" fill="#81807e"/>
      <path id="Контур_343" data-name="Контур 343" d="M71.027,94.486S73.64,119.856,75,128.541c1.588,10.153,2.126,18.544,2.569,23.8.557,6.61.665,39.129,1.055,41.063s-8.654.533-8.654.533-4.448-42.49-6.109-49.53c-1.544-6.555-7.279-34.778-8.69-32.987s-3.159,32.935-4.2,38.1-4.22,45.647-4.22,45.647-7.2,1.434-9.113-.187c0,0-.871-34.884-.206-44.578.254-3.693-4.327-44.291,1.547-60.637C42.082,81.133,71.027,94.486,71.027,94.486Z" transform="translate(17.708 42.766)" fill="#292c47"/>
      <path id="Контур_344" data-name="Контур 344" d="M25.294,116.469s1.964,2.269,3.808,1.931,9.566-23.873,9.639-28.585a120.1,120.1,0,0,1,2.145-13.906l0,.017,0,.012v.017c.208.755,3.029,11.222,3.128,16.251.1,5.219-.312,23.174-.312,23.174l6.99,1.871,22.327.208,5.1-2.08s-.557-5.774-.765-9.829c-.128-2.577-.628-7.192-.5-11.685a41.435,41.435,0,0,1,.389-6.78c.05-9.005.6-17.924.6-17.924q.454-6.127.634-11.464c-.987-.52-2.169-1.129-3.118-1.581-2.934-1.4-7.02-3.276-9.642-4.48-1.535-.707-3.039-1.221-3.039-1.221s-10.481-1-11.331-.952a26.752,26.752,0,0,0-3.3,1.13,119.832,119.832,0,0,0-12.023,5.1c-1.674,1.2-5.211,29.665-5.371,31.655C30.37,90.945,25.294,116.469,25.294,116.469Z" transform="translate(12.453 24.353)" fill="#dbd8e3"/>
      <path id="Контур_345" data-name="Контур 345" d="M69.736,92.356a185.693,185.693,0,0,1-28.771,0v4.409s20.005,1.909,29.444-.841Z" transform="translate(20.169 45.471)" fill="#1d2033"/>
      <path id="Контур_346" data-name="Контур 346" d="M51.479,50.532s2.494,5.862,4.366,18.963C56.565,74.526,57.9,83,58.866,91.64v0c.765,6.813,2.508,13.807,3.063,19.023.574,5.4,2.3,21.326,2.3,21.326l4.2-2.644c.6-.554,1.439-1.275,1.195-2.052a225.225,225.225,0,0,1-4.664-26.772l0-.022c-.061-.519-.123-1.03-.181-1.541,0-.025-.005-.051-.008-.08-.247-2.147-.452-4.2-.6-6.087a19.185,19.185,0,0,1,.189-4.234c.584-9.633.875-19.79.875-19.79.308-4.158.484-8.045.6-11.665C65.83,57.108,52.67,50.888,51.479,50.532Z" transform="translate(25.345 24.879)" fill="#323657"/>
      <path id="Контур_347" data-name="Контур 347" d="M40.3,89.842c-.326,4.371-8.322,29.889-9.384,29.777a78.714,78.714,0,0,1-8.139-2.171s7.724-25.944,8-28.675c.2-1.991,3.366-31.842,5.04-33.04.966-.692,8.125-3.231,11.637-4.616.643-.254,2.759-1.051,3.334-1.268.746.829,5.955,6.469,7.77,27.884.306,3.61-.66,11.252-1.3,17.491-.687,6.656-1.449,11.85-2.008,17.414-1.1,10.968-1.87,19.692-1.87,19.692L42.46,127.472c-1.766-.886-4.211-4.511-3.547-6.369,2.523-7.067,5.7-19.141,5.7-25.341,0,0-1.218-15.183-2.182-18.52a93.512,93.512,0,0,0-2.134,12.6Z" transform="translate(11.214 24.543)" fill="#323657"/>
      <path id="Контур_348" data-name="Контур 348" d="M50.077,31.787s10.94-4.049,10.258,10.492S57.085,58.294,49.889,56.265s-7.8-11.209-8.738-15.621S46.5,32.421,50.077,31.787Z" transform="translate(20.214 15.395)" fill="#eea886"/>
      <path id="Контур_349" data-name="Контур 349" d="M43.164,48.862s-.03-3.884,1.585-4.242S47.2,46.508,47.2,46.508l1.3-.07s-1.164-3.935.377-4.838,10.752-.111,11.907-1.434-.521-9.2-3.033-9.967-9.379-2.34-13.738,1.542c0,0-3.792.073-3.944,3.159S41.849,46.756,43.164,48.862Z" transform="translate(19.721 14.388)" fill="#434343"/>
      <path id="Контур_350" data-name="Контур 350" d="M45.4,38.706c-.483-1.281-3.211-1.119-2.933.911S45,44.777,45.907,44.19,46.066,40.474,45.4,38.706Z" transform="translate(20.898 18.653)" fill="#eea886"/>
      <path id="Контур_351" data-name="Контур 351" d="M43.543,53.046s.965-.8-.42-8.077c-.37-1.949,10.271,2.324,10.271,2.324s-.085,1.6-.076,3.2c0,.717.027,1.433.087,2.01a6.547,6.547,0,0,0,.389,1.4C54.277,55.015,47.478,55.862,43.543,53.046Z" transform="translate(21.227 21.89)" fill="#eea987"/>
      <path id="Контур_352" data-name="Контур 352" d="M52.816,51.529a9.093,9.093,0,0,1-8.5-5.092,11.866,11.866,0,0,0,8.415,3.082C52.731,50.236,52.755,50.951,52.816,51.529Z" transform="translate(21.817 22.863)" fill="#a77860"/>
      <path id="Контур_353" data-name="Контур 353" d="M48.688,52.739l1.936,2.6a2.345,2.345,0,0,1-3.149.4Z" transform="translate(23.374 25.966)" fill="#5282fc"/>
      <path id="Контур_354" data-name="Контур 354" d="M49.731,54.574s7.183,27.656,5.7,49.185l-2.416,4.258-2.263-4.463s-.619-38.5-2.589-49.049Z" transform="translate(23.714 26.836)" fill="#5282fc"/>
      <path id="Контур_355" data-name="Контур 355" d="M51.811,51.358l-2.074,2.427s-3.329-.646-4.306-2.384S51.811,51.358,51.811,51.358Z" transform="translate(22.324 24.921)" fill="#eea987"/>
      <path id="Контур_356" data-name="Контур 356" d="M50.837,49.69a10,10,0,0,1-2.549,4.55l2.519,3.384L52.171,50.6Z" transform="translate(23.774 24.465)" fill="#c4c1cc"/>
      <path id="Контур_357" data-name="Контур 357" d="M44.18,48.423s3.618,5.111,6.983,6.442L49.6,58.734,42.447,50.09Z" transform="translate(20.899 23.841)" fill="#c4c1cc"/>
    </g>
    <g id="Сгруппировать_16" data-name="Сгруппировать 16" transform="translate(30.106 20.65)">
      <path id="Контур_212" data-name="Контур 212" d="M33.122,100.829A26.435,26.435,0,1,1,59.558,74.394a26.435,26.435,0,0,1-26.436,26.435Zm0-52.007A25.572,25.572,0,1,0,58.7,74.394,25.572,25.572,0,0,0,33.122,48.822Z" transform="translate(3.207 172.491)" fill="#23d87d"/>
      <path id="Контур_213" data-name="Контур 213" d="M107.737,235.581a8.419,8.419,0,1,1-8.419-8.419,8.419,8.419,0,0,1,8.419,8.419Z" transform="translate(192 46.097)" fill="#252f5a"/>
      <path id="Контур_214" data-name="Контур 214" d="M183.345,21.214,169.559,45.1h27.575Z" transform="translate(-4.216 213.91)" fill="#ffa76c"/>
      <path id="Контур_215" data-name="Контур 215" d="M44.313,80.393l-.2-.723L36.789,52.311l28.078,7.524-.526.529Zm-6.3-26.861,6.748,25.192L63.2,60.283Z" transform="translate(303.082 85.553)" fill="#23d87d"/>
      <rect id="Прямоугольник_9" data-name="Прямоугольник 9" width="23.481" height="23.481" transform="translate(68.799 88.603) rotate(-45)" fill="#252f5a"/>
      <rect id="Прямоугольник_10" data-name="Прямоугольник 10" width="0.868" height="52.839" transform="translate(135.942 100.91) rotate(-45)" fill="#252f5a"/>
    </g>
  </g>
</svg>
