<svg xmlns="http://www.w3.org/2000/svg" width="1096" height="929.646" viewBox="0 0 1096 929.646">
  <g id="Сгруппировать_77" data-name="Сгруппировать 77" transform="translate(39)">
    <path id="Контур_212" data-name="Контур 212" d="M33.769,102.118A27.08,27.08,0,1,0,6.688,75.038a27.08,27.08,0,0,0,27.081,27.08Zm0-53.276a26.2,26.2,0,1,1-26.2,26.2,26.2,26.2,0,0,1,26.2-26.2Z" transform="translate(996.152 -14.132)" fill="#23d87d"/>
    <path id="Контур_213" data-name="Контур 213" d="M90.9,235.787a8.624,8.624,0,1,0,8.624-8.624,8.624,8.624,0,0,0-8.624,8.624Z" transform="translate(826.87 9.761)" fill="#252f5a"/>
    <path id="Контур_214" data-name="Контур 214" d="M183.685,21.214,197.806,45.68H169.559Z" transform="translate(22.194 278.962)" fill="#ffa76c"/>
    <path id="Контур_215" data-name="Контур 215" d="M57.845,81.077l.2-.741,7.507-28.026L36.789,60.018l.539.542ZM64.3,53.561,57.389,79.367,38.5,60.478Z" transform="translate(-50.789 135.915)" fill="#23d87d"/>
    <rect id="Прямоугольник_9" data-name="Прямоугольник 9" width="24.053" height="24.053" transform="translate(174.992 34.017) rotate(-135)" fill="#252f5a"/>
    <rect id="Прямоугольник_10" data-name="Прямоугольник 10" width="0.889" height="54.128" transform="translate(970.629 432.646) rotate(-135)" fill="#252f5a"/>
    <rect id="Прямоугольник_70" data-name="Прямоугольник 70" width="0.889" height="54.128" transform="translate(-38.371 929.646) rotate(-135)" fill="#252f5a"/>
  </g>
</svg>
