<svg xmlns="http://www.w3.org/2000/svg" width="72" height="53.333" viewBox="0 0 72 53.333">
  <g id="Сгруппировать_112" data-name="Сгруппировать 112" transform="translate(-776 -5632.649)">
    <g id="Объединение_2" data-name="Объединение 2" transform="translate(-4190.257 6722.603) rotate(90)" fill="none">
      <path d="M-1076.931-4998.929a1,1,0,0,1-1-1v-6.09a10.394,10.394,0,0,1-2.364-.2,1,1,0,0,1,0-1.415l5.657-5.656a1,1,0,0,1,1.414,0l5.657,5.656a1,1,0,0,1,0,1.415,10.23,10.23,0,0,1-2.364.2v6.088a1,1,0,0,1-1,1Z" stroke="none"/>
      <path d="M -1071.931030273438 -5000.9287109375 L -1071.931030273438 -5006.01708984375 L -1071.931030273438 -5007.95361328125 L -1070.7509765625 -5007.99169921875 L -1073.931030273438 -5011.1708984375 L -1077.109130859375 -5007.99365234375 L -1075.931030273438 -5007.95556640625 L -1075.931030273438 -5006.01904296875 L -1075.931030273438 -5000.9287109375 L -1071.931030273438 -5000.9287109375 M -1070.931274414062 -4998.9287109375 L -1076.9306640625 -4998.9287109375 C -1077.483154296875 -4998.9287109375 -1077.931030273438 -4999.376953125 -1077.931030273438 -4999.92919921875 L -1077.931030273438 -5006.01904296875 C -1079.260864257812 -5006.06201171875 -1080.199829101562 -5006.1298828125 -1080.295288085938 -5006.2216796875 C -1080.685424804688 -5006.61181640625 -1080.685424804688 -5007.24462890625 -1080.295288085938 -5007.63623046875 L -1074.63818359375 -5013.2919921875 C -1074.442504882812 -5013.48779296875 -1074.186401367188 -5013.58544921875 -1073.930541992188 -5013.58544921875 C -1073.674682617188 -5013.58544921875 -1073.4189453125 -5013.48779296875 -1073.223876953125 -5013.2919921875 L -1067.566650390625 -5007.63623046875 C -1067.176635742188 -5007.24462890625 -1067.176635742188 -5006.61181640625 -1067.566650390625 -5006.2216796875 C -1067.663452148438 -5006.1279296875 -1068.602905273438 -5006.06005859375 -1069.931030273438 -5006.01708984375 L -1069.931030273438 -4999.92919921875 C -1069.931030273438 -4999.376953125 -1070.37890625 -4998.9287109375 -1070.931274414062 -4998.9287109375 Z" stroke="none" fill="#252f5a"/>
    </g>
    <g id="Объединение_3" data-name="Объединение 3" transform="translate(814.328 5652.015) rotate(90)" fill="none">
      <path d="M3.657,0a1,1,0,0,0-1,1V7.09a10.394,10.394,0,0,0-2.364.2,1,1,0,0,0,0,1.415L5.95,14.363a1,1,0,0,0,1.414,0l5.657-5.656a1,1,0,0,0,0-1.415,10.23,10.23,0,0,0-2.364-.2V1a1,1,0,0,0-1-1Z" stroke="none"/>
      <path d="M 4.656859397888184 1.999997138977051 L 4.656859397888184 7.090327262878418 L 4.656859397888184 9.02674674987793 L 3.478744506835938 9.064816474914551 L 6.656806945800781 12.24211502075195 L 9.836858749389648 9.062894821166992 L 8.656739234924316 9.024717330932617 L 8.656739234924316 7.088377475738525 L 8.656739234924316 1.999997138977051 L 4.656859397888184 1.999997138977051 M 3.657229423522949 -2.86102294921875e-06 L 9.656489372253418 -2.86102294921875e-06 C 10.20885944366455 -2.86102294921875e-06 10.65673923492432 0.448237419128418 10.65673923492432 1.000487327575684 L 10.65673923492432 7.088377475738525 C 11.98485946655273 7.131347179412842 12.92431926727295 7.199217319488525 13.02111911773682 7.292967319488525 C 13.41100978851318 7.683107376098633 13.41100978851318 8.31591796875 13.02111911773682 8.707517623901367 L 7.363889217376709 14.36327743530273 C 7.16888427734375 14.55883693695068 6.913179397583008 14.65661716461182 6.657305717468262 14.65661716461182 C 6.401432037353516 14.65661716461182 6.145389080047607 14.55883693695068 5.949709415435791 14.36327743530273 L 0.2925996780395508 8.707517623901367 C -0.09741115570068359 8.31591796875 -0.09741115570068359 7.683107376098633 0.2925996780395508 7.292967319488525 C 0.3880596160888672 7.201167106628418 1.327029228210449 7.133297443389893 2.656859397888184 7.090327262878418 L 2.656859397888184 1.000487327575684 C 2.656859397888184 0.448237419128418 3.104739189147949 -2.86102294921875e-06 3.657229423522949 -2.86102294921875e-06 Z" stroke="none" fill="#252f5a"/>
    </g>
    <g id="Сгруппировать_114" data-name="Сгруппировать 114" transform="translate(776 5632.649)">
      <g id="Контур_520" data-name="Контур 520" transform="translate(6 38.67)" fill="none" stroke-linecap="round" stroke-linejoin="round">
        <path d="M3.333,0H56.667A1.333,1.333,0,0,1,58,1.333l8,12a1.333,1.333,0,0,1-1.333,1.333H-4.667A1.333,1.333,0,0,1-6,13.33l8-12A1.333,1.333,0,0,1,3.333,0Z" stroke="none"/>
        <path d="M 4.494213104248047 2.999994277954102 L -1.282550811767578 11.6629467010498 L 61.28255081176758 11.6629467010498 L 55.50579071044922 2.999994277954102 L 4.494213104248047 2.999994277954102 M 3.333328247070312 -5.7220458984375e-06 L 56.66666030883789 -5.7220458984375e-06 C 57.40304565429688 -5.7220458984375e-06 58 0.5968055725097656 58 1.332993507385254 L 66 13.32995891571045 C 66 14.06614685058594 65.40304565429688 14.6629467010498 64.66665649414062 14.6629467010498 L -4.666671752929688 14.6629467010498 C -5.403045654296875 14.6629467010498 -6 14.06614685058594 -6 13.32995891571045 L 2 1.332993507385254 C 2 0.5968055725097656 2.596954345703125 -5.7220458984375e-06 3.333328247070312 -5.7220458984375e-06 Z" stroke="none" fill="#252f5a"/>
      </g>
      <g id="Прямоугольник_79" data-name="Прямоугольник 79" transform="translate(7.998)" fill="none" stroke="#252f5a" stroke-width="3">
        <rect width="56.004" height="42.656" rx="1" stroke="none"/>
        <rect x="1.5" y="1.5" width="53.004" height="39.656" rx="0.5" fill="none"/>
      </g>
    </g>
  </g>
</svg>
