<svg xmlns="http://www.w3.org/2000/svg" width="91" height="80.157" viewBox="0 0 91 80.157">
  <g id="Сгруппировать_120" data-name="Сгруппировать 120" transform="translate(-1203 -6351.351)">
    <g id="Сгруппировать_91" data-name="Сгруппировать 91" transform="translate(143 1359.351)">
      <g id="noun_Laptop_2570186" transform="translate(1081.002 5014)">
        <rect id="Прямоугольник_53" data-name="Прямоугольник 53" width="18" height="3" rx="1.5" transform="translate(24.998 24)" fill="#252f5a"/>
        <g id="Объединение_1" data-name="Объединение 1" transform="translate(1107.929 5020.929)" fill="none">
          <path d="M-1077.691-4998.929a1.149,1.149,0,0,1-1.253-1v-6.758a16.452,16.452,0,0,1-3.592-.287,1.349,1.349,0,0,1,0-1.911l7.649-7.649a1.35,1.35,0,0,1,1.911,0l7.649,7.649a1.349,1.349,0,0,1,0,1.911,16.178,16.178,0,0,1-3.592.289v6.756a1.149,1.149,0,0,1-1.254,1Z" stroke="none"/>
          <path d="M -1071.918334960938 -5001.9287109375 L -1071.918334960938 -5006.68408203125 L -1071.918334960938 -5009.6005859375 L -1070.32958984375 -5009.6455078125 L -1073.930786132812 -5013.24658203125 L -1077.530639648438 -5009.646484375 L -1075.943359375 -5009.60107421875 L -1075.943359375 -5006.68603515625 L -1075.943359375 -5001.9287109375 L -1071.918334960938 -5001.9287109375 M -1070.17236328125 -4998.9287109375 L -1077.690551757812 -4998.9287109375 C -1078.3818359375 -4998.9287109375 -1078.943359375 -4999.376953125 -1078.943359375 -4999.92822265625 L -1078.943359375 -5006.68603515625 C -1080.948486328125 -5006.74365234375 -1082.397583007812 -5006.83935546875 -1082.53564453125 -5006.97314453125 C -1083.064453125 -5007.50048828125 -1083.064453125 -5008.35693359375 -1082.53564453125 -5008.88427734375 L -1074.886474609375 -5016.53369140625 C -1074.622680664062 -5016.7978515625 -1074.276733398438 -5016.93017578125 -1073.930786132812 -5016.93017578125 C -1073.584838867188 -5016.93017578125 -1073.238891601562 -5016.7978515625 -1072.97509765625 -5016.53369140625 L -1065.326049804688 -5008.88427734375 C -1064.797241210938 -5008.35693359375 -1064.797241210938 -5007.50048828125 -1065.326049804688 -5006.97314453125 C -1065.466064453125 -5006.8369140625 -1066.91552734375 -5006.74072265625 -1068.918334960938 -5006.68408203125 L -1068.918334960938 -4999.92822265625 C -1068.918334960938 -4999.376953125 -1069.479858398438 -4998.9287109375 -1070.17236328125 -4998.9287109375 Z" stroke="none" fill="#252f5a"/>
        </g>
        <g id="Сгруппировать_116" data-name="Сгруппировать 116" transform="translate(-2.002 -5.351)">
          <g id="Контур_520" data-name="Контур 520" transform="translate(6 38.67)" fill="none" stroke-linecap="round" stroke-linejoin="round">
            <path d="M3.333,0H56.667A1.333,1.333,0,0,1,58,1.333l8,12a1.333,1.333,0,0,1-1.333,1.333H-4.667A1.333,1.333,0,0,1-6,13.33l8-12A1.333,1.333,0,0,1,3.333,0Z" stroke="none"/>
            <path d="M 4.494213104248047 2.999994277954102 L -1.282550811767578 11.6629467010498 L 61.28255081176758 11.6629467010498 L 55.50579071044922 2.999994277954102 L 4.494213104248047 2.999994277954102 M 3.333328247070312 -5.7220458984375e-06 L 56.66666030883789 -5.7220458984375e-06 C 57.40304565429688 -5.7220458984375e-06 58 0.5968055725097656 58 1.332993507385254 L 66 13.32995891571045 C 66 14.06614685058594 65.40304565429688 14.6629467010498 64.66665649414062 14.6629467010498 L -4.666671752929688 14.6629467010498 C -5.403045654296875 14.6629467010498 -6 14.06614685058594 -6 13.32995891571045 L 2 1.332993507385254 C 2 0.5968055725097656 2.596954345703125 -5.7220458984375e-06 3.333328247070312 -5.7220458984375e-06 Z" stroke="none" fill="#252f5a"/>
          </g>
          <g id="Прямоугольник_79" data-name="Прямоугольник 79" transform="translate(7.998)" fill="none" stroke="#252f5a" stroke-width="3">
            <rect width="56.004" height="42.656" rx="1" stroke="none"/>
            <rect x="1.5" y="1.5" width="53.004" height="39.656" rx="0.5" fill="none"/>
          </g>
        </g>
      </g>
    </g>
    <g id="Сгруппировать_41" data-name="Сгруппировать 41" transform="translate(1091.106 6245)">
      <path id="Контур_214" data-name="Контур 214" d="M183.345,21.214,169.559,45.1h27.575Z" transform="translate(-40.216 140.91)" fill="none" stroke="#ffa76c" stroke-width="1"/>
      <rect id="Прямоугольник_10" data-name="Прямоугольник 10" width="0.868" height="52.839" transform="translate(156.942 117.91) rotate(-45)" fill="#252f5a"/>
      <g id="Эллипс_39" data-name="Эллипс 39" transform="translate(111.894 106.351)" fill="none" stroke="#462be2" stroke-width="1">
        <circle cx="11" cy="11" r="11" stroke="none"/>
        <circle cx="11" cy="11" r="10.5" fill="none"/>
      </g>
    </g>
  </g>
</svg>
