<svg xmlns="http://www.w3.org/2000/svg" width="105" height="71.211" viewBox="0 0 105 71.211">
  <g id="Сгруппировать_118" data-name="Сгруппировать 118" transform="translate(-590 -6361.946)">
    <g id="Сгруппировать_113" data-name="Сгруппировать 113" transform="translate(-455 956)">
      <g id="Сгруппировать_20" data-name="Сгруппировать 20" transform="translate(5 -22)">
        <g id="Контур_521" data-name="Контур 521" transform="translate(1079 5439)" fill="none" stroke-linecap="round" stroke-linejoin="round">
          <path d="M3.333,0H56.667C57.4,0,58.073,1.333,58,1.364l8,12.273A1.349,1.349,0,0,1,64.667,15H-4.667A1.349,1.349,0,0,1-6,13.636L2,1.364C2.125,1.311,2.6,0,3.333,0Z" stroke="none"/>
          <path d="M 4.526256561279297 2.999999046325684 C 4.491157531738281 3.050993919372559 4.453197479248047 3.103513717651367 4.412147521972656 3.156890869140625 L -1.352245330810547 12 L 61.35224533081055 12 L 55.48680114746094 3.001870155334473 C 55.48638534545898 3.00123405456543 55.48599624633789 3.000636100769043 55.4855842590332 2.999999046325684 L 4.526256561279297 2.999999046325684 M 3.333328247070312 -9.5367431640625e-07 L 56.66666030883789 -9.5367431640625e-07 C 57.40304565429688 -9.5367431640625e-07 58.07317733764648 1.332681655883789 58 1.363635063171387 L 66 13.6363639831543 C 66 14.38948154449463 65.40304565429688 15 64.66665649414062 15 L -4.666671752929688 15 C -5.403045654296875 15 -6 14.38948154449463 -6 13.6363639831543 L 2 1.363635063171387 C 2.125118255615234 1.311199188232422 2.596954345703125 -9.5367431640625e-07 3.333328247070312 -9.5367431640625e-07 Z" stroke="none" fill="#252f5a"/>
        </g>
        <rect id="Прямоугольник_84" data-name="Прямоугольник 84" width="72" height="3" rx="1.5" transform="translate(1073 5458)" fill="#252f5a"/>
        <rect id="Прямоугольник_85" data-name="Прямоугольник 85" width="72" height="3" rx="1.5" transform="translate(1073 5465)" fill="#252f5a"/>
        <rect id="Прямоугольник_86" data-name="Прямоугольник 86" width="72" height="3" rx="1.5" transform="translate(1073 5472)" fill="#252f5a"/>
        <rect id="Прямоугольник_87" data-name="Прямоугольник 87" width="72" height="3" rx="1.5" transform="translate(1073 5479)" fill="#252f5a"/>
      </g>
    </g>
    <g id="Сгруппировать_45" data-name="Сгруппировать 45" transform="translate(493.106 6244.649)">
      <path id="Контур_214" data-name="Контур 214" d="M183.345,21.214,169.559,45.1h27.575Z" transform="translate(-2.216 142.91)" fill="none" stroke="#ffa76c" stroke-width="1"/>
      <rect id="Прямоугольник_10" data-name="Прямоугольник 10" width="0.868" height="52.839" transform="translate(156.942 117.91) rotate(-45)" fill="#252f5a"/>
      <g id="Эллипс_39" data-name="Эллипс 39" transform="translate(96.894 136.351)" fill="none" stroke="#462be2" stroke-width="1">
        <circle cx="11" cy="11" r="11" stroke="none"/>
        <circle cx="11" cy="11" r="10.5" fill="none"/>
      </g>
    </g>
  </g>
</svg>
