<svg xmlns="http://www.w3.org/2000/svg" width="86.819" height="81.058" viewBox="0 0 86.819 81.058">
  <g id="Сгруппировать_119" data-name="Сгруппировать 119" transform="translate(-917 -6349.942)">
    <g id="Сгруппировать_104" data-name="Сгруппировать 104" transform="translate(-453 957)">
      <g id="noun_Laptop_2570186" transform="translate(1380.002 5414)">
        <path id="Контур_486" data-name="Контур 486" d="M15.468,23.017l7.769-7.072,4.236,3.862L39.013,9.272" transform="translate(5 2)" fill="none" stroke="#252f5a" stroke-linecap="round" stroke-linejoin="round" stroke-width="3"/>
        <g id="Сгруппировать_115" data-name="Сгруппировать 115" transform="translate(-4.002 -2)">
          <g id="Контур_520" data-name="Контур 520" transform="translate(6 38.67)" fill="none" stroke-linecap="round" stroke-linejoin="round">
            <path d="M3.333,0H56.667A1.333,1.333,0,0,1,58,1.333l8,12a1.333,1.333,0,0,1-1.333,1.333H-4.667A1.333,1.333,0,0,1-6,13.33l8-12A1.333,1.333,0,0,1,3.333,0Z" stroke="none"/>
            <path d="M 4.494213104248047 2.999994277954102 L -1.282550811767578 11.6629467010498 L 61.28255081176758 11.6629467010498 L 55.50579071044922 2.999994277954102 L 4.494213104248047 2.999994277954102 M 3.333328247070312 -5.7220458984375e-06 L 56.66666030883789 -5.7220458984375e-06 C 57.40304565429688 -5.7220458984375e-06 58 0.5968055725097656 58 1.332993507385254 L 66 13.32995891571045 C 66 14.06614685058594 65.40304565429688 14.6629467010498 64.66665649414062 14.6629467010498 L -4.666671752929688 14.6629467010498 C -5.403045654296875 14.6629467010498 -6 14.06614685058594 -6 13.32995891571045 L 2 1.332993507385254 C 2 0.5968055725097656 2.596954345703125 -5.7220458984375e-06 3.333328247070312 -5.7220458984375e-06 Z" stroke="none" fill="#252f5a"/>
          </g>
          <g id="Прямоугольник_79" data-name="Прямоугольник 79" transform="translate(7.998)" fill="none" stroke="#252f5a" stroke-width="3">
            <rect width="56.004" height="42.656" rx="1" stroke="none"/>
            <rect x="1.5" y="1.5" width="53.004" height="39.656" rx="0.5" fill="none"/>
          </g>
        </g>
      </g>
      <path id="Контур_487" data-name="Контур 487" d="M1413.223,5422.417l6.112.347.526,5.826" transform="translate(5 2)" fill="none" stroke="#252f5a" stroke-linecap="round" stroke-linejoin="round" stroke-width="3"/>
    </g>
    <g id="Сгруппировать_44" data-name="Сгруппировать 44" transform="translate(803.106 6338.649)">
      <rect id="Прямоугольник_9" data-name="Прямоугольник 9" width="23.481" height="23.481" transform="translate(166.799 28.603) rotate(-45)" fill="none" stroke="#462be2" stroke-width="1"/>
      <rect id="Прямоугольник_10" data-name="Прямоугольник 10" width="0.868" height="52.839" transform="translate(144.942 51.91) rotate(-45)" fill="#252f5a"/>
      <g id="Эллипс_39" data-name="Эллипс 39" transform="translate(113.894 70.351)" fill="none" stroke="#ffa76c" stroke-width="1">
        <circle cx="11" cy="11" r="11" stroke="none"/>
        <circle cx="11" cy="11" r="10.5" fill="none"/>
      </g>
    </g>
  </g>
</svg>
