<svg xmlns="http://www.w3.org/2000/svg" width="54" height="76.742" viewBox="0 0 54 76.742">
  <g id="Сгруппировать_86" data-name="Сгруппировать 86" transform="translate(-778 -4728)">
    <g id="Прямоугольник_40" data-name="Прямоугольник 40" transform="translate(778 4728)" fill="none" stroke="#252f5a" stroke-width="3">
      <rect width="54" height="68" rx="2" stroke="none"/>
      <rect x="1.5" y="1.5" width="51" height="65" rx="0.5" fill="none"/>
    </g>
    <g id="Эллипс_32" data-name="Эллипс 32" transform="translate(805 4771)" fill="none" stroke="#252f5a" stroke-width="3">
      <circle cx="9" cy="9" r="9" stroke="none"/>
      <circle cx="9" cy="9" r="7.5" fill="none"/>
    </g>
    <g id="Контур_469" data-name="Контур 469" transform="translate(809.481 4786)" fill="#252f5a">
      <path d="M 0.9999982118606567 16.17658996582031 L 0.9999982118606567 1.000003695487976 L 7.51917839050293 1.000003695487976 L 7.51917839050293 16.16781234741211 L 5.007258415222168 13.42237377166748 L 4.271178245544434 12.61786365509033 L 3.533238172531128 13.42066383361816 L 0.9999982118606567 16.17658996582031 Z" stroke="none"/>
      <path d="M 1.999998092651367 2.000003814697266 L 1.999998092651367 13.61101627349854 L 2.797018051147461 12.74393367767334 L 4.27288818359375 11.13832378387451 L 5.745038032531738 12.74733352661133 L 6.51917839050293 13.59344100952148 L 6.51917839050293 2.000003814697266 L 1.999998092651367 2.000003814697266 M -1.9073486328125e-06 3.814697265625e-06 L 8.51917839050293 3.814697265625e-06 L 8.51917839050293 18.74218368530273 L 4.269468307495117 14.09740352630615 L -1.9073486328125e-06 18.74218368530273 L -1.9073486328125e-06 3.814697265625e-06 Z" stroke="none" fill="#252f5a"/>
    </g>
  </g>
</svg>
