<svg xmlns="http://www.w3.org/2000/svg" width="72" height="53.333" viewBox="0 0 72 53.333">
  <g id="Сгруппировать_103" data-name="Сгруппировать 103" transform="translate(-476 -5414)">
    <g id="noun_Laptop_2570186" transform="translate(476.002 5414)">
      <g id="Сгруппировать_18" data-name="Сгруппировать 18" transform="translate(-0.002)">
        <g id="Контур_520" data-name="Контур 520" transform="translate(6 38.67)" fill="none" stroke-linecap="round" stroke-linejoin="round">
          <path d="M3.333,0H56.667A1.333,1.333,0,0,1,58,1.333l8,12a1.333,1.333,0,0,1-1.333,1.333H-4.667A1.333,1.333,0,0,1-6,13.33l8-12A1.333,1.333,0,0,1,3.333,0Z" stroke="none"/>
          <path d="M 4.494213104248047 2.999994277954102 L -1.282550811767578 11.6629467010498 L 61.28255081176758 11.6629467010498 L 55.50579071044922 2.999994277954102 L 4.494213104248047 2.999994277954102 M 3.333328247070312 -5.7220458984375e-06 L 56.66666030883789 -5.7220458984375e-06 C 57.40304565429688 -5.7220458984375e-06 58 0.5968055725097656 58 1.332993507385254 L 66 13.32995891571045 C 66 14.06614685058594 65.40304565429688 14.6629467010498 64.66665649414062 14.6629467010498 L -4.666671752929688 14.6629467010498 C -5.403045654296875 14.6629467010498 -6 14.06614685058594 -6 13.32995891571045 L 2 1.332993507385254 C 2 0.5968055725097656 2.596954345703125 -5.7220458984375e-06 3.333328247070312 -5.7220458984375e-06 Z" stroke="none" fill="#252f5a"/>
        </g>
        <g id="Прямоугольник_79" data-name="Прямоугольник 79" transform="translate(7.998)" fill="none" stroke="#252f5a" stroke-width="3">
          <rect width="56.004" height="42.656" rx="1" stroke="none"/>
          <rect x="1.5" y="1.5" width="53.004" height="39.656" rx="0.5" fill="none"/>
        </g>
      </g>
      <rect id="Прямоугольник_80" data-name="Прямоугольник 80" width="3" height="8" rx="1.5" transform="translate(23.998 23)" fill="#252f5a"/>
      <rect id="Прямоугольник_81" data-name="Прямоугольник 81" width="3" height="12" rx="1.5" transform="translate(30.998 19)" fill="#252f5a"/>
      <rect id="Прямоугольник_82" data-name="Прямоугольник 82" width="3" height="16" rx="1.5" transform="translate(37.998 15)" fill="#252f5a"/>
      <rect id="Прямоугольник_83" data-name="Прямоугольник 83" width="3" height="20" rx="1.5" transform="translate(44.998 11)" fill="#252f5a"/>
    </g>
  </g>
</svg>
