<svg id="Asset_1" data-name="Asset 1" xmlns="http://www.w3.org/2000/svg" width="859.786" height="898.547" viewBox="0 0 859.786 898.547">
  <g id="Layer_2" data-name="Layer 2">
    <g id="Objects">
      <path id="Контур_1" data-name="Контур 1" d="M719.491,226.79H19.447a7.085,7.085,0,0,1-7.065-7.063h0a7.085,7.085,0,0,1,7.065-7.063H719.491a7.085,7.085,0,0,1,7.065,7.063h0a7.085,7.085,0,0,1-7.065,7.063Z" transform="translate(34.112 586.093)" fill="#e2e2f7"/>
      <path id="Контур_2" data-name="Контур 2" d="M230.189,156.652a31.42,31.42,0,0,1-3.894-.24c-17.957-2.2-32.4-19.047-34.73-21.9-2.71,2.567-19.56,17.779-36.567,16a29.514,29.514,0,0,1-21.687-14.85c-12.515-19.235,2.706-48.032,17.678-68.8A259.248,259.248,0,0,1,211.077,7.389l.7-.459.026.838C212.654,37.292,228.242,62.653,242,85.03c16.4,26.67,29.347,47.737,9.057,63.844a33.1,33.1,0,0,1-20.865,7.778Zm-38.536-23.544.327.424c.154.2,15.3,19.607,34.433,21.949a31.489,31.489,0,0,0,24.055-7.341c19.641-15.59,6.883-36.344-9.27-62.618-13.685-22.266-29.182-47.473-30.3-76.888a259.775,259.775,0,0,0-59.141,58.777c-20.924,29.026-27.195,53.083-17.657,67.742a28.621,28.621,0,0,0,21,14.428,25.7,25.7,0,0,0,2.7.139c17.077,0,33.311-16.064,33.48-16.234Z" transform="translate(354.648 19.094)" fill="#fff"/>
      <path id="Контур_3" data-name="Контур 3" d="M169.885,224.65c-.205-.264-20.345-27.266-24.144-102.006C141.954,47.963,157.905,11.357,158.067,11l.858.385c-.161.357-16.021,36.789-12.244,111.214,3.781,74.4,23.747,101.22,23.949,101.482Z" transform="translate(400.044 30.293)" fill="#fff"/>
      <path id="Контур_4" data-name="Контур 4" d="M191.5,47.869c-12.589-14.131-37.04-15.961-45.738-9.626l-.55-.759c9.156-6.687,33.869-4.969,46.993,9.762Z" transform="translate(400.186 92.968)" fill="#fff"/>
      <path id="Контур_5" data-name="Контур 5" d="M176.683,35.052c-.172-.127-17.756-12.635-42.35-.906l-.4-.847c25.122-11.982,43.127.865,43.311,1Z" transform="translate(369.096 77.674)" fill="#fff"/>
      <path id="Контур_6" data-name="Контур 6" d="M168.391,28.533a19.528,19.528,0,0,0-21.9-5.622l-.323-.884a20.492,20.492,0,0,1,22.967,5.933Z" transform="translate(402.833 56.978)" fill="#fff"/>
      <path id="Контур_7" data-name="Контур 7" d="M156.734,17.686c-.044-.035-4.151-3.469-12.684-.319l-.323-.88c9.083-3.357,13.443.334,13.627.493Z" transform="translate(396.093 41.549)" fill="#fff"/>
      <path id="Контур_8" data-name="Контур 8" d="M133.512,41.033l-.455-.822A50.535,50.535,0,0,1,179.2,37.2l-.447.825a49.585,49.585,0,0,0-45.236,3.009Z" transform="translate(366.693 90.948)" fill="#fff"/>
      <path id="Контур_9" data-name="Контур 9" d="M180.769,35.553a35.452,35.452,0,0,0-34.921-4.928l-.4-.847a36.392,36.392,0,0,1,35.9,5.031Z" transform="translate(400.827 74.806)" fill="#fff"/>
      <path id="Контур_10" data-name="Контур 10" d="M165.97,27.934A26.21,26.21,0,0,0,138.9,25.167l-.359-.869A27.166,27.166,0,0,1,166.6,27.241Z" transform="translate(381.812 59.766)" fill="#fff"/>
      <path id="Контур_11" data-name="Контур 11" d="M160.9,19.4c-5.361-4.928-13.4-.53-13.476-.486l-.462-.817c.088-.048,8.706-4.78,14.577.611Z" transform="translate(405.004 44.436)" fill="#fff"/>
      <path id="Контур_12" data-name="Контур 12" d="M152.307,14.252c-.066-.071-1.643-1.659-5.625-.471l-.271-.9c4.606-1.372,6.506.645,6.59.731l-.7.634.348-.317Z" transform="translate(403.485 34.178)" fill="#fff"/>
      <path id="Контур_13" data-name="Контур 13" d="M71.421,291.05q-1.529,0-3.113-.114c-25.841-1.9-26.993-26.6-28.449-57.872-1.225-26.237-2.611-55.973-18.522-80.857l-.451-.7.836-.018a259.57,259.57,0,0,1,83.142,15.346c24.066,8.742,52.856,23.982,53.333,46.923a29.5,29.5,0,0,1-9.567,24.477c-13.054,11.027-35.551,7.946-39.233,7.356-.319,3.667-2.779,25.72-16.384,37.645a31.726,31.726,0,0,1-21.591,7.818ZM22.577,152.408c15.625,24.95,17,54.506,18.221,80.612,1.434,30.81,2.567,55.144,27.576,56.978a31.5,31.5,0,0,0,24.019-7.469c14.5-12.714,16.091-37.271,16.105-37.517l.033-.535.525.1c.246.048,25.133,4.628,38.973-7.062a28.619,28.619,0,0,0,9.23-23.737c-.363-17.488-19.083-33.846-52.717-46.065a262.143,262.143,0,0,0-80.67-15.31C23.431,152.4,23,152.4,22.577,152.408Z" transform="translate(57.542 417.491)" fill="#33ff9d"/>
      <path id="Контур_14" data-name="Контур 14" d="M135.844,336.86l-.939-.051c.018-.33,1.427-33.744-37.319-97.362C58.807,175.769,25.207,154.607,24.873,154.4l.492-.8c.337.209,34.129,21.489,73.021,85.353C137.31,302.874,135.862,336.53,135.844,336.86Z" transform="translate(68.525 423.338)" fill="#33ff9d"/>
      <path id="Контур_15" data-name="Контур 15" d="M33.218,205.968l-.932-.125c2.527-19.333,21.555-34.521,32.948-34.521.136,0,.271,0,.4.007l-.03.939c-.121,0-.242-.007-.363-.007C54.427,172.261,35.641,187.409,33.218,205.968Z" transform="translate(88.948 472.143)" fill="#33ff9d"/>
      <path id="Контур_16" data-name="Контур 16" d="M39.075,186.2l-.887-.315c.077-.209,7.734-20.964,35.243-25.2l.139.931C46.64,165.758,39.144,185.993,39.075,186.2Z" transform="translate(105.24 442.834)" fill="#33ff9d"/>
      <path id="Контур_17" data-name="Контур 17" d="M29.434,178.421l-.939-.051a20.475,20.475,0,0,1,15.647-17.829l.227.909a19.5,19.5,0,0,0-14.936,16.971Z" transform="translate(78.503 442.429)" fill="#33ff9d"/>
      <path id="Контур_18" data-name="Контур 18" d="M29.523,162.858l-.909-.235c.059-.235,1.58-5.735,10.99-8.075l.228.909C31.005,157.654,29.538,162.806,29.523,162.858Z" transform="translate(78.832 425.914)" fill="#33ff9d"/>
      <path id="Контур_19" data-name="Контур 19" d="M41.547,188.546l-.836-.433a50.5,50.5,0,0,1,39.835-23.472l.088.931a49.536,49.536,0,0,0-39.087,22.974Z" transform="translate(112.194 453.731)" fill="#33ff9d"/>
      <path id="Контур_20" data-name="Контур 20" d="M30.844,190.415l-.895-.293a36.4,36.4,0,0,1,26.839-24.36l.146.924a35.452,35.452,0,0,0-26.09,23.729Z" transform="translate(82.509 456.818)" fill="#33ff9d"/>
      <path id="Контур_21" data-name="Контур 21" d="M34.9,175.8l-.909-.22a27.153,27.153,0,0,1,21.529-18.217l.2.917A26.181,26.181,0,0,0,34.9,175.8Z" transform="translate(93.642 433.669)" fill="#33ff9d"/>
      <path id="Контур_22" data-name="Контур 22" d="M27.341,166.282l-.917-.212c1.819-7.759,11.606-8.7,11.705-8.713l.081.939C38.118,158.3,29,159.191,27.341,166.282Z" transform="translate(72.797 433.654)" fill="#33ff9d"/>
      <path id="Контур_23" data-name="Контур 23" d="M27.268,158.09l-.932-.136c.018-.118.462-2.86,5.031-4.313l.286.895C27.686,155.795,27.283,158,27.268,158.09Z" transform="translate(72.558 423.416)" fill="#33ff9d"/>
      <path id="Контур_24" data-name="Контур 24" d="M190.814,160.6s-21.505,65.626-72.783,47.956C54.742,186.743,132.7,88.7,104.249,0c56.674,13.779,179.15,78.543,165.42,135.194S190.814,160.6,190.814,160.6Z" transform="translate(254.97)" fill="#252f5a"/>
      <path id="Контур_25" data-name="Контур 25" d="M186.424,297.785l-.895-.293c.147-.449,14.338-46.164-15.988-148.38C139.211,46.881,100.459,5.271,100.07,4.862l.682-.645c.389.409,39.288,42.152,69.691,144.628C200.865,251.394,186.571,297.333,186.424,297.785Z" transform="translate(275.788 11.618)" fill="#fff"/>
      <path id="Контур_26" data-name="Контур 26" d="M101.431,71.05l-.866-.356c10.649-26.025,43-40.047,58.489-35.4l-.272.9C144,31.763,111.724,45.913,101.431,71.05Z" transform="translate(277.149 94.8)" fill="#fff"/>
      <path id="Контур_27" data-name="Контур 27" d="M114.295,45.009l-.777-.528c.176-.262,18.265-26.05,57.748-21.86l-.1.935C132.285,19.411,114.471,44.754,114.295,45.009Z" transform="translate(312.844 61.05)" fill="#fff"/>
      <path id="Контур_28" data-name="Контур 28" d="M101.789,35.709l-.895-.29a29.066,29.066,0,0,1,27.572-18.792c.128,0,.253,0,.382,0l-.007.939c-.125,0-.249,0-.37,0a28.086,28.086,0,0,0-26.681,18.143Z" transform="translate(278.052 45.803)" fill="#fff"/>
      <path id="Контур_29" data-name="Контур 29" d="M105.017,15.439l-.821-.46c.169-.3,4.184-7.252,17.968-7.044l-.015.939C109.015,8.675,105.054,15.371,105.017,15.439Z" transform="translate(287.151 21.846)" fill="#fff"/>
      <path id="Контур_30" data-name="Контур 30" d="M116.42,48.459l-.7-.631c.228-.246,22.937-24.673,63.472-17.822l-.154.924C139.024,24.187,116.644,48.217,116.42,48.459Z" transform="translate(318.924 79.33)" fill="#fff"/>
      <path id="Контур_31" data-name="Контур 31" d="M101.138,49.786l-.785-.513A51.883,51.883,0,0,1,146.18,25.5l-.1.935A50.9,50.9,0,0,0,101.138,49.786Z" transform="translate(276.563 70.123)" fill="#fff"/>
      <path id="Контур_32" data-name="Контур 32" d="M110.44,32.542l-.829-.444a38.242,38.242,0,0,1,33.656-17.275c.851,0,1.709.02,2.592.064l-.044.939C120.392,14.537,110.535,32.362,110.44,32.542Z" transform="translate(302.076 40.738)" fill="#fff"/>
      <path id="Контур_33" data-name="Контур 33" d="M100.909,19.353l-.829-.44c5.28-9.941,19-7.68,19.149-7.655l-.161.924C118.943,12.163,105.87,10.024,100.909,19.353Z" transform="translate(275.807 30.361)" fill="#fff"/>
      <path id="Контур_34" data-name="Контур 34" d="M102.61,9.635l-.862-.37c.062-.15,1.636-3.671,8.361-4l.044.939C104.062,6.5,102.668,9.507,102.61,9.635Z" transform="translate(280.403 14.507)" fill="#fff"/>
      <path id="Контур_35" data-name="Контур 35" d="M92.823,224.645s9.331,37.438-20.18,44.318C36.22,277.456,43.959,207.9,4.14,174.4c30.907-10.325,108.1-16.086,118.437,14.794S92.823,224.645,92.823,224.645Z" transform="translate(11.406 457.907)" fill="#252f5a"/>
      <path id="Контур_36" data-name="Контур 36" d="M134.78,282.715c-.066-.257-6.941-26.054-51.6-65.339C38.47,178.045,7.833,169.9,7.528,169.827l.231-.909c.306.077,31.164,8.276,76.042,47.755,44.917,39.515,51.826,65.559,51.888,65.815Z" transform="translate(20.74 465.533)" fill="#fff"/>
      <path id="Контур_37" data-name="Контур 37" d="M19.818,212.957c-2.713-15.577,8.526-31.939,17.3-34.367l.249.9c-8.251,2.285-19.208,18.452-16.623,33.3Z" transform="translate(53.462 492.175)" fill="#fff"/>
      <path id="Контур_38" data-name="Контур 38" d="M21.835,196.674l-.939-.037c.007-.176.909-17.884,20.938-27.682l.411.843C22.741,179.34,21.842,196.5,21.835,196.674Z" transform="translate(57.569 465.619)" fill="#fff"/>
      <path id="Контур_39" data-name="Контур 39" d="M13.244,189.813a16.451,16.451,0,0,1,7.732-17.422l.492.8a15.259,15.259,0,0,0-7.314,16.4Z" transform="translate(35.579 475.088)" fill="#fff"/>
      <path id="Контур_40" data-name="Контур 40" d="M11.05,176.946c-.009-.194-.165-4.8,6.505-8.859l.488.8c-6.155,3.744-6.056,7.976-6.054,8.016Z" transform="translate(30.438 463.223)" fill="#fff"/>
      <path id="Контур_41" data-name="Контур 41" d="M24.576,198.7l-.924-.165a40.465,40.465,0,0,1,24.859-27.455l.359.865A39.516,39.516,0,0,0,24.576,198.7Z" transform="translate(65.161 471.47)" fill="#fff"/>
      <path id="Контур_42" data-name="Контур 42" d="M16.7,200.383l-.939-.015a29.2,29.2,0,0,1,14.729-25.053l.418.843A28.232,28.232,0,0,0,16.7,200.383Z" transform="translate(43.435 483.149)" fill="#fff"/>
      <path id="Контур_43" data-name="Контур 43" d="M16.461,187.4A21.789,21.789,0,0,1,28.6,168.285l.462.822A20.814,20.814,0,0,0,17.4,187.331Z" transform="translate(45.351 463.771)" fill="#fff"/>
      <path id="Контур_44" data-name="Контур 44" d="M10.1,180.221c-.466-6.417,6.839-9.487,6.912-9.516l.356.866c-.068.029-6.747,2.849-6.333,8.584Z" transform="translate(27.773 470.438)" fill="#fff"/>
      <path id="Контур_45" data-name="Контур 45" d="M8.87,172.892c-.015-.092-.339-2.351,2.851-4.576l.535.77c-2.669,1.863-2.468,3.59-2.458,3.663Z" transform="translate(24.393 463.855)" fill="#fff"/>
      <path id="Контур_46" data-name="Контур 46" d="M229.254,243.961s-11.892,53.052,29.911,61.758c51.594,10.745,38.365-86.976,93.337-135.51-43.885-13.511-152.816-19.045-166.351,24.8S229.254,243.961,229.254,243.961Z" transform="translate(507.284 442.248)" fill="#33ff9d"/>
      <path id="Контур_47" data-name="Контур 47" d="M178.063,328.361l-.917-.205c.084-.367,8.929-37.227,70.839-94.355C309.851,176.717,353,164.15,353.43,164.029l.256.9c-.429.121-43.388,12.648-105.063,69.559C186.926,291.42,178.144,328,178.063,328.361Z" transform="translate(488.233 452.104)" fill="#252f5a"/>
      <path id="Контур_48" data-name="Контур 48" d="M226.64,225.828l-.932-.139c3.161-21.1-12.9-43.615-24.668-46.571l.228-.909C213.637,181.315,229.926,203.885,226.64,225.828Z" transform="translate(554.062 491.125)" fill="#252f5a"/>
      <path id="Контур_49" data-name="Контур 49" d="M227.119,202.9c-.015-.242-1.859-24.5-29.765-37.341l.389-.851c28.437,13.076,30.3,37.884,30.315,38.133Z" transform="translate(543.906 453.924)" fill="#252f5a"/>
      <path id="Контур_50" data-name="Контур 50" d="M225.377,193.244l-.917-.205a22.047,22.047,0,0,0-10.942-23.058l.469-.814A22.993,22.993,0,0,1,225.377,193.244Z" transform="translate(588.437 466.202)" fill="#252f5a"/>
      <path id="Контур_51" data-name="Контур 51" d="M226.419,175.117l-.939-.022c0-.062.015-6.128-8.892-11.254l.469-.814C226.485,168.454,226.426,174.849,226.419,175.117Z" transform="translate(596.894 449.28)" fill="#252f5a"/>
      <path id="Контур_52" data-name="Контур 52" d="M227.322,205.714c-.055-.253-5.5-25.475-35.232-37.011l.338-.873c30.231,11.727,35.76,37.44,35.812,37.7Z" transform="translate(529.401 462.52)" fill="#252f5a"/>
      <path id="Контур_53" data-name="Контур 53" d="M228.057,208.113A39.972,39.972,0,0,0,207.122,174.3l.4-.851A40.924,40.924,0,0,1,229,208.076Z" transform="translate(570.815 477.995)" fill="#252f5a"/>
      <path id="Контур_54" data-name="Контур 54" d="M224.944,189.872l-.939-.044a29.583,29.583,0,0,0-17.14-25.46l.44-.829A30.511,30.511,0,0,1,224.944,189.872Z" transform="translate(570.11 450.695)" fill="#252f5a"/>
      <path id="Контур_55" data-name="Контур 55" d="M228.191,179.68l-.939-.044c.4-8.236-9.234-12.031-9.333-12.068l.338-.88C218.36,166.729,228.624,170.762,228.191,179.68Z" transform="translate(600.563 459.37)" fill="#252f5a"/>
      <path id="Контур_56" data-name="Контур 56" d="M225.642,169.41l-.932-.125.466.062-.466-.059c.011-.106.264-2.651-3.674-5.262l.521-.785C226.023,166.2,225.66,169.281,225.642,169.41Z" transform="translate(609.148 449.871)" fill="#252f5a"/>
      <path id="Контур_57" data-name="Контур 57" d="M300.1,335.589a36.868,36.868,0,0,1-17.051-4.082c-22.556-11.565-30.979-44.481-32.038-48.994-4.345,1.408-36.113,11-60.227-.814a47.353,47.353,0,0,1-24.257-28.936c-11.965-35.834,20.719-51.3,62.093-70.887,34.818-16.48,74.282-35.159,98.987-70.777l.477-.688.337.766c11.038,25.016,23.938,73.562,26.171,121.031,1.76,37.418-2.574,84.865-33.219,98.415a52.746,52.746,0,0,1-21.272,4.965Zm-48.4-54.3.11.525c.077.363,7.95,36.7,31.668,48.866,10.891,5.585,23.513,5.273,37.509-.909,23.531-10.4,35.13-45.034,32.662-97.513-2.2-46.87-14.826-94.775-25.757-119.931-24.873,35.377-64.173,53.978-98.873,70.4-40.957,19.386-73.307,34.7-61.609,69.737a46.472,46.472,0,0,0,23.78,28.393c25.467,12.482,59.666.726,60.007.6Z" transform="translate(452.088 304.309)" fill="#252f5a"/>
      <path id="Контур_58" data-name="Контур 58" d="M158.006,369.865l-.308-.887c.455-.161,46.487-17.125,110.71-105.522,64.239-88.415,73.912-145.878,74-146.448l.924.146c-.088.572-9.78,58.234-74.165,146.852C204.738,352.685,158.468,369.7,158.006,369.865Z" transform="translate(434.653 322.494)" fill="#252f5a"/>
      <path id="Контур_59" data-name="Контур 59" d="M239.291,169.3c-5.622-14.807-37.26-32.225-64.121-24.91l-.249-.909c27.818-7.543,59.372,10.015,65.25,25.489Z" transform="translate(482.067 390.436)" fill="#252f5a"/>
      <path id="Контур_60" data-name="Контур 60" d="M248.956,176.558c-20.887-34.22-52.574-32.919-52.922-32.882l-.051-.939c.337,0,32.6-1.353,53.773,33.329Z" transform="translate(540.128 393.351)" fill="#252f5a"/>
      <path id="Контур_61" data-name="Контур 61" d="M225.325,140.941a28.813,28.813,0,0,0-31.631-10.695l-.316-.884a29.772,29.772,0,0,1,32.695,11.014Z" transform="translate(532.953 353.003)" fill="#252f5a"/>
      <path id="Контур_62" data-name="Контур 62" d="M221.218,134.553c-8.038-10.817-15.963-9.847-16.032-9.847l-.132-.928c.349-.048,8.507-1.1,16.92,10.214Z" transform="translate(565.117 340.987)" fill="#252f5a"/>
      <path id="Контур_63" data-name="Контур 63" d="M245.964,189.063c-19.468-36.765-52.973-39.981-53.311-40.007l.081-.939c.341.029,34.345,3.271,54.059,40.506Z" transform="translate(530.954 408.197)" fill="#252f5a"/>
      <path id="Контур_64" data-name="Контур 64" d="M231.871,157.4a52.318,52.318,0,0,0-47.025-22l-.073-.935a53.09,53.09,0,0,1,47.9,22.44Z" transform="translate(509.242 370.059)" fill="#252f5a"/>
      <path id="Контур_65" data-name="Контур 65" d="M236.445,153.534c-14.822-21.456-35.456-18.379-35.665-18.35l-.15-.928c.22-.035,21.434-3.188,36.585,18.742Z" transform="translate(552.929 369.509)" fill="#252f5a"/>
      <path id="Контур_66" data-name="Контур 66" d="M217.113,133.838c-.062-.123-6.505-12.116-17.169-10.306l-.154-.928c11.324-1.89,18.089,10.671,18.152,10.8Z" transform="translate(550.615 337.348)" fill="#252f5a"/>
      <path id="Контур_67" data-name="Контур 67" d="M214.088,124.558c-4.049-4.78-7.459-4-7.5-4l-.231-.909c.161-.042,3.993-.964,8.453,4.3Z" transform="translate(568.701 329.496)" fill="#252f5a"/>
      <path id="Контур_68" data-name="Контур 68" d="M22.063,295.645c14.525,0,14.525-115.822,0-115.822H455.527c14.525,0,14.525,115.822,0,115.822Z" transform="translate(60.784 495.618)" fill="#f5f5f7"/>
      <path id="Контур_69" data-name="Контур 69" d="M459.716,187.871H25.489a1.877,1.877,0,1,1,0-3.755H459.716a1.877,1.877,0,1,1,0,3.755Z" transform="translate(65.05 507.396)" fill="#ebebed"/>
      <path id="Контур_70" data-name="Контур 70" d="M459.716,193.945H25.489a1.878,1.878,0,0,1,0-3.755H459.716a1.878,1.878,0,0,1,0,3.755Z" transform="translate(65.05 524.136)" fill="#ebebed"/>
      <path id="Контур_71" data-name="Контур 71" d="M459.716,203.056H25.489a1.877,1.877,0,1,1,0-3.755H459.716a1.877,1.877,0,1,1,0,3.755Z" transform="translate(65.05 549.278)" fill="#ebebed"/>
      <path id="Контур_72" data-name="Контур 72" d="M459.716,209.13H25.489a1.878,1.878,0,0,1,0-3.755H459.716a1.878,1.878,0,0,1,0,3.755Z" transform="translate(65.05 566.013)" fill="#ebebed"/>
      <path id="Контур_73" data-name="Контур 73" d="M459.716,190.908H25.489a1.878,1.878,0,0,1,0-3.755H459.716a1.878,1.878,0,0,1,0,3.755Z" transform="translate(65.05 515.766)" fill="#ebebed"/>
      <path id="Контур_74" data-name="Контур 74" d="M459.716,196.982H25.489a1.878,1.878,0,0,1,0-3.755H459.716a1.878,1.878,0,0,1,0,3.755Z" transform="translate(65.05 532.544)" fill="#ebebed"/>
      <path id="Контур_75" data-name="Контур 75" d="M459.716,200.019H25.489a1.878,1.878,0,0,1,0-3.755H459.716a1.878,1.878,0,0,1,0,3.755Z" transform="translate(65.05 540.911)" fill="#ebebed"/>
      <path id="Контур_76" data-name="Контур 76" d="M459.716,206.093H25.489a1.878,1.878,0,0,1,0-3.755H459.716a1.878,1.878,0,0,1,0,3.755Z" transform="translate(65.05 557.646)" fill="#ebebed"/>
      <path id="Контур_77" data-name="Контур 77" d="M137.5,295.645c14.525,0,14.525-115.822,0-115.822h211.63c14.525,0,14.525,115.822,0,115.822Z" transform="translate(379.006 495.618)" fill="#3021bf"/>
      <path id="Контур_78" data-name="Контур 78" d="M354.637,177.824H143.005a7.507,7.507,0,0,0-2.44,14.607c7.848,12.429,7.848,89.181,0,101.61a7.507,7.507,0,0,0,2.44,14.607H354.637c4.581,0,18.437,0,18.437-65.412S359.218,177.824,354.637,177.824Zm-2.178,115.8H156.524c2.816-9.5,4.919-25.008,4.919-50.392,0-25.346-2.1-40.892-4.919-50.392H352.459C359.969,206.324,359.969,280.185,352.459,293.628Z" transform="translate(373.482 490.109)" fill="#3021bf"/>
      <path id="Контур_79" data-name="Контур 79" d="M226.472,293.628a81.067,81.067,0,0,1-3.792,15.02H166.955a81.12,81.12,0,0,0,3.793-15.02,371.282,371.282,0,0,0,0-100.784,81.1,81.1,0,0,0-3.793-15.02h55.724a81.054,81.054,0,0,1,3.793,15.02A368.237,368.237,0,0,1,226.472,293.628Z" transform="translate(460.114 490.109)" fill="#3932d6"/>
      <path id="Контур_80" data-name="Контур 80" d="M461.037,308.666H27.573a7.51,7.51,0,1,1,0-15.02H458.829c7.528-13.469,7.528-87.333,0-100.8H27.573a7.51,7.51,0,1,1,0-15.02H461.037c4.551,0,18.4,0,18.4,65.423S465.588,308.666,461.037,308.666Zm0-115.822Z" transform="translate(55.274 490.108)" fill="#462be2"/>
      <g id="Сгруппировать_2" data-name="Сгруппировать 2" transform="translate(461.448 701.77)">
        <path id="Контур_81" data-name="Контур 81" d="M123.359,189.789v50.7a2.787,2.787,0,0,0,3.678,2.641l12.106-4.082,12.106,4.082a2.787,2.787,0,0,0,3.677-2.641v-50.7a2.445,2.445,0,0,0-2.445-2.445H125.8a2.445,2.445,0,0,0-2.445,2.445Z" transform="translate(-121.483 -185.466)" fill="#ebebed"/>
        <path id="Контур_82" data-name="Контур 82" d="M127.524,246.532a4.665,4.665,0,0,1-4.664-4.664v-50.7a4.326,4.326,0,0,1,4.32-4.324h26.677a4.329,4.329,0,0,1,4.323,4.324v50.7a4.663,4.663,0,0,1-6.153,4.419l-11.507-3.88-11.507,3.88A4.614,4.614,0,0,1,127.524,246.532Zm13-7.983a1.874,1.874,0,0,1,.6.1l12.1,4.081a.859.859,0,0,0,.821-.125.886.886,0,0,0,.378-.737v-50.7a.571.571,0,0,0-.568-.569H127.18a.568.568,0,0,0-.565.568v50.7a.886.886,0,0,0,.378.737.862.862,0,0,0,.817.125l12.108-4.081a1.9,1.9,0,0,1,.6-.1Z" transform="translate(-122.86 -186.844)" fill="#ebebed"/>
      </g>
      <path id="Контур_83" data-name="Контур 83" d="M122.881,189.427v50.7a2.787,2.787,0,0,0,3.677,2.64l12.106-4.082,12.106,4.082a2.787,2.787,0,0,0,3.677-2.64v-50.7A2.445,2.445,0,0,0,152,186.982H125.326a2.445,2.445,0,0,0-2.445,2.445Z" transform="translate(338.647 515.305)" fill="#33ff9d"/>
      <path id="Контур_84" data-name="Контур 84" d="M153.037,246.169a4.612,4.612,0,0,1-1.489-.246l-11.507-3.88-11.5,3.88a4.664,4.664,0,0,1-6.157-4.419v-50.7a4.329,4.329,0,0,1,4.323-4.324h26.677a4.326,4.326,0,0,1,4.32,4.324v50.7a4.666,4.666,0,0,1-4.664,4.664ZM126.7,190.237a.571.571,0,0,0-.568.568v50.7a.911.911,0,0,0,1.2.862l12.1-4.081a1.873,1.873,0,0,1,1.2,0l12.108,4.081a.909.909,0,0,0,1.2-.862v-50.7a.568.568,0,0,0-.565-.568Z" transform="translate(337.269 513.928)" fill="#33ff9d"/>
      <path id="Контур_85" data-name="Контур 85" d="M405.371,260.8c-14.525,0-14.525-115.822,0-115.822H135.661c-14.525,0-14.525,115.822,0,115.822Z" transform="translate(343.929 399.559)" fill="#ebebed"/>
      <path id="Контур_86" data-name="Контур 86" d="M126.794,153.026H397.268a1.878,1.878,0,0,0,0-3.755H126.794a1.878,1.878,0,1,0,0,3.755Z" transform="translate(344.34 411.369)" fill="#f5f5f7"/>
      <path id="Контур_87" data-name="Контур 87" d="M126.794,159.1H397.268a1.878,1.878,0,0,0,0-3.755H126.794a1.878,1.878,0,0,0,0,3.755Z" transform="translate(344.34 428.109)" fill="#f5f5f7"/>
      <path id="Контур_88" data-name="Контур 88" d="M126.794,168.212H397.268a1.878,1.878,0,0,0,0-3.755H126.794a1.878,1.878,0,0,0,0,3.755Z" transform="translate(344.34 453.218)" fill="#f5f5f7"/>
      <path id="Контур_89" data-name="Контур 89" d="M126.794,174.286H397.268a1.878,1.878,0,0,0,0-3.755H126.794a1.878,1.878,0,1,0,0,3.755Z" transform="translate(344.34 469.958)" fill="#f5f5f7"/>
      <path id="Контур_90" data-name="Контур 90" d="M126.794,156.063H397.268a1.878,1.878,0,0,0,0-3.755H126.794a1.878,1.878,0,1,0,0,3.755Z" transform="translate(344.34 419.739)" fill="#f5f5f7"/>
      <path id="Контур_91" data-name="Контур 91" d="M126.794,162.137H397.268a1.877,1.877,0,0,0,0-3.755H126.794a1.877,1.877,0,1,0,0,3.755Z" transform="translate(344.34 436.479)" fill="#f5f5f7"/>
      <path id="Контур_92" data-name="Контур 92" d="M126.794,165.174H397.268a1.878,1.878,0,0,0,0-3.755H126.794a1.878,1.878,0,0,0,0,3.755Z" transform="translate(344.34 444.848)" fill="#f5f5f7"/>
      <path id="Контур_93" data-name="Контур 93" d="M126.794,171.249H397.268a1.878,1.878,0,0,0,0-3.755H126.794a1.878,1.878,0,0,0,0,3.755Z" transform="translate(344.34 461.588)" fill="#f5f5f7"/>
      <path id="Контур_94" data-name="Контур 94" d="M354.672,260.8c-14.525,0-14.525-115.822,0-115.822H56.165c-14.525,0-14.525,115.822,0,115.822Z" transform="translate(124.784 399.559)" fill="#ff8a33"/>
      <path id="Контур_95" data-name="Контур 95" d="M61.7,142.979H360.213a7.507,7.507,0,0,1,2.44,14.607c-7.848,12.429-7.848,89.181,0,101.61a7.507,7.507,0,0,1-2.44,14.607H61.7c-4.581,0-18.437,0-18.437-65.412S57.123,142.979,61.7,142.979Zm2.178,115.8H346.694c-2.816-9.5-4.919-25.008-4.919-50.392,0-25.346,2.1-40.892,4.919-50.392H63.882c-7.51,13.48-7.51,87.341,0,100.784Z" transform="translate(119.26 394.05)" fill="#ff8a33"/>
      <path id="Контур_96" data-name="Контур 96" d="M61.768,258.784a81.082,81.082,0,0,0,3.793,15.02H94.389a81.079,81.079,0,0,1-3.793-15.02A371.259,371.259,0,0,1,90.6,158a81.08,81.08,0,0,1,3.793-15.02H65.561A81.082,81.082,0,0,0,61.768,158a368.273,368.273,0,0,0,0,100.784Z" transform="translate(160.681 394.05)" fill="#ffa76c"/>
      <path id="Контур_97" data-name="Контур 97" d="M106.982,258.783a81.052,81.052,0,0,0,3.793,15.02H139.6a81.107,81.107,0,0,1-3.793-15.02,371.262,371.262,0,0,1,0-100.784,81.106,81.106,0,0,1,3.793-15.02H110.775A81.049,81.049,0,0,0,106.982,158,368.244,368.244,0,0,0,106.982,258.783Z" transform="translate(285.283 394.05)" fill="#ffa76c"/>
      <path id="Контур_98" data-name="Контур 98" d="M72.566,258.783a81.076,81.076,0,0,0,3.793,15.02H94.4a81.077,81.077,0,0,1-3.793-15.02,371.261,371.261,0,0,1,0-100.784,81.077,81.077,0,0,1,3.793-15.02H76.359A81.082,81.082,0,0,0,72.566,158,368.272,368.272,0,0,0,72.566,258.783Z" transform="translate(190.437 394.05)" fill="#ffa76c"/>
      <path id="Контур_99" data-name="Контур 99" d="M79.3,258.783A81.081,81.081,0,0,0,83.1,273.8h18.042a81.11,81.11,0,0,1-3.793-15.02,371.258,371.258,0,0,1,0-100.784,81.11,81.11,0,0,1,3.793-15.02H83.1A81.076,81.076,0,0,0,79.3,158a368.269,368.269,0,0,0,0,100.784Z" transform="translate(209.005 394.05)" fill="#ffa76c"/>
      <path id="Контур_100" data-name="Контур 100" d="M141.172,273.821H410.883a7.51,7.51,0,0,0,0-15.02H143.38c-7.528-13.469-7.528-87.333,0-100.8h267.5a7.51,7.51,0,0,0,0-15.02H141.172c-4.551,0-18.4,0-18.4,65.423S136.621,273.821,141.172,273.821Zm0-115.822Z" transform="translate(338.418 394.05)" fill="#d86212"/>
      <g id="Сгруппировать_3" data-name="Сгруппировать 3" transform="translate(499.165 570.897)">
        <path id="Контур_101" data-name="Контур 101" d="M164.968,154.945v50.7a2.787,2.787,0,0,1-3.677,2.641L149.185,204.2l-12.106,4.082a2.787,2.787,0,0,1-3.677-2.641v-50.7a2.445,2.445,0,0,1,2.445-2.445h26.677A2.445,2.445,0,0,1,164.968,154.945Z" transform="translate(-131.524 -150.621)" fill="#ebebed"/>
        <path id="Контур_102" data-name="Контур 102" d="M163.558,211.687a4.666,4.666,0,0,0,4.665-4.664v-50.7A4.325,4.325,0,0,0,163.9,152H137.225a4.328,4.328,0,0,0-4.323,4.323v50.7a4.663,4.663,0,0,0,6.153,4.419l11.507-3.88,11.507,3.88a4.61,4.61,0,0,0,1.489.246Zm-13-7.983a1.88,1.88,0,0,0-.6.1l-12.1,4.081a.86.86,0,0,1-.821-.125.885.885,0,0,1-.378-.737v-50.7a.571.571,0,0,1,.568-.568H163.9a.568.568,0,0,1,.565.568v50.7a.886.886,0,0,1-.378.737.864.864,0,0,1-.817.125L151.164,203.8a1.893,1.893,0,0,0-.6-.1Z" transform="translate(-132.902 -151.999)" fill="#ebebed"/>
      </g>
      <path id="Контур_103" data-name="Контур 103" d="M165.447,154.582v50.7a2.787,2.787,0,0,1-3.677,2.641l-12.106-4.082-12.106,4.082a2.787,2.787,0,0,1-3.677-2.641v-50.7a2.445,2.445,0,0,1,2.445-2.445H163a2.445,2.445,0,0,1,2.445,2.445Z" transform="translate(368.958 419.276)" fill="#3021bf"/>
      <path id="Контур_104" data-name="Контур 104" d="M138.045,211.325a4.614,4.614,0,0,0,1.489-.246l11.507-3.88,11.5,3.88a4.664,4.664,0,0,0,6.157-4.419v-50.7a4.329,4.329,0,0,0-4.323-4.323H137.7a4.326,4.326,0,0,0-4.32,4.323v50.7A4.666,4.666,0,0,0,138.045,211.325Zm26.333-55.933a.571.571,0,0,1,.568.568v50.7a.911.911,0,0,1-1.2.862l-12.1-4.081a1.873,1.873,0,0,0-1.2,0l-12.109,4.081a.908.908,0,0,1-1.2-.862v-50.7a.568.568,0,0,1,.565-.568Z" transform="translate(367.581 417.899)" fill="#3021bf"/>
      <path id="Контур_105" data-name="Контур 105" d="M57.352,122.7h495.7c26.761,0,26.761,70.615,0,70.615H57.352" transform="translate(158.198 338.142)" fill="#23d87d"/>
      <path id="Контур_106" data-name="Контур 106" d="M557.413,203.617H61.713a5.945,5.945,0,0,1,0-11.889h495.7c9.175,0,14.124-15.128,14.124-29.363S566.588,133,557.413,133H61.713a5.945,5.945,0,0,1,0-11.889h495.7c17.874,0,26.013,21.383,26.013,41.252S575.287,203.617,557.413,203.617Z" transform="translate(153.837 333.782)" fill="#23d87d"/>
      <path id="Контур_107" data-name="Контур 107" d="M18.086,193.312c26.761,0,26.761-70.615,0-70.615H361.194c26.761,0,26.761,70.615,0,70.615Z" transform="translate(49.826 338.142)" fill="#f5f5f7"/>
      <path id="Контур_108" data-name="Контур 108" d="M356.338,131.07H23.764a1.486,1.486,0,1,1,0-2.972H356.338a1.486,1.486,0,0,1,0,2.972Z" transform="translate(61.375 353.019)" fill="#ebebed"/>
      <path id="Контур_109" data-name="Контур 109" d="M356.338,138.282H23.764a1.486,1.486,0,0,1,0-2.972H356.338a1.486,1.486,0,0,1,0,2.972Z" transform="translate(61.375 372.894)" fill="#ebebed"/>
      <path id="Контур_110" data-name="Контур 110" d="M357.882,128.666H23.2a1.486,1.486,0,0,1,0-2.972H357.882a1.486,1.486,0,1,1,0,2.972Z" transform="translate(59.831 346.393)" fill="#ebebed"/>
      <path id="Контур_111" data-name="Контур 111" d="M354.792,133.474H24.325a1.486,1.486,0,0,1,0-2.972H354.792a1.486,1.486,0,1,1,0,2.972Z" transform="translate(62.921 359.644)" fill="#ebebed"/>
      <path id="Контур_112" data-name="Контур 112" d="M354.792,135.878H24.325a1.486,1.486,0,1,1,0-2.972H354.792a1.486,1.486,0,1,1,0,2.972Z" transform="translate(62.921 366.269)" fill="#ebebed"/>
      <path id="Контур_113" data-name="Контур 113" d="M357.882,140.686H23.2a1.486,1.486,0,0,1,0-2.972H357.882a1.486,1.486,0,0,1,0,2.972Z" transform="translate(59.831 379.519)" fill="#ebebed"/>
      <path id="Контур_114" data-name="Контур 114" d="M365.555,203.617H22.447a5.945,5.945,0,1,1,0-11.889H365.555c9.175,0,14.124-15.128,14.124-29.363S374.73,133,365.555,133H22.447a5.945,5.945,0,0,1,0-11.889H365.555c17.874,0,26.013,21.383,26.013,41.252S383.43,203.617,365.555,203.617Z" transform="translate(45.465 333.782)" fill="#33ff9d"/>
      <g id="Сгруппировать_4" data-name="Сгруппировать 4" transform="translate(370.558 473.368)">
        <path id="Контур_115" data-name="Контур 115" d="M99.057,128.365v24.269a2.206,2.206,0,0,0,2.911,2.09l9.582-3.231,9.582,3.231a2.206,2.206,0,0,0,2.911-2.09V128.365a1.935,1.935,0,0,0-1.936-1.935H100.992a1.935,1.935,0,0,0-1.935,1.936Z" transform="translate(-97.57 -124.943)" fill="#ebebed"/>
        <path id="Контур_116" data-name="Контур 116" d="M102.356,157.417a3.694,3.694,0,0,1-3.695-3.692V129.456a3.426,3.426,0,0,1,3.422-3.422H123.2a3.426,3.426,0,0,1,3.422,3.422v24.269a3.693,3.693,0,0,1-4.874,3.5l-9.108-3.069-9.106,3.069a3.655,3.655,0,0,1-1.178.195Zm-.273-28.411a.451.451,0,0,0-.45.45v24.269a.721.721,0,0,0,.949.682l9.582-3.23a1.486,1.486,0,0,1,.952,0l9.585,3.231a.721.721,0,0,0,.949-.682V129.456a.451.451,0,0,0-.45-.45Z" transform="translate(-98.661 -126.034)" fill="#ebebed"/>
      </g>
      <path id="Контур_117" data-name="Контур 117" d="M98.678,128.078v24.269a2.206,2.206,0,0,0,2.911,2.09l9.582-3.231,9.582,3.231a2.206,2.206,0,0,0,2.911-2.09V128.078a1.935,1.935,0,0,0-1.935-1.935H100.614A1.935,1.935,0,0,0,98.678,128.078Z" transform="translate(271.945 347.634)" fill="#ff8a33"/>
      <path id="Контур_118" data-name="Контур 118" d="M101.978,157.129a3.69,3.69,0,0,1-3.695-3.692V129.168a3.423,3.423,0,0,1,3.419-3.421h21.116a3.425,3.425,0,0,1,3.422,3.421v24.269a3.691,3.691,0,0,1-4.871,3.5l-9.108-3.071-9.108,3.071a3.683,3.683,0,0,1-1.176.193Zm10.284-6.319a1.487,1.487,0,0,1,.476.079l9.582,3.232a.72.72,0,0,0,.949-.684V129.168a.451.451,0,0,0-.45-.448H101.7a.449.449,0,0,0-.447.448v24.269a.718.718,0,0,0,.946.684l9.585-3.232a1.486,1.486,0,0,1,.476-.078Z" transform="translate(270.855 346.544)" fill="#ff8a33"/>
      <path id="Контур_119" data-name="Контур 119" d="M363.375,148.06H131.994a9.234,9.234,0,0,1-9.207-9.206h0a9.234,9.234,0,0,1,9.206-9.206H363.375a9.234,9.234,0,0,1,9.207,9.206h0a9.233,9.233,0,0,1-9.207,9.206Z" transform="translate(338.426 357.292)" fill="#33ff9d"/>
      <path id="Контур_120" data-name="Контур 120" d="M45.582,330.87H180.025c18.442-10.009,32.183-32.663,32.231-62.2L276,42.251H659.751L596.009,268.674c-.049,29.533-13.789,52.187-32.231,62.2H345.408" transform="translate(125.774 116.454)" fill="#462be2"/>
      <path id="Контур_121" data-name="Контур 121" d="M569.289,343.889H350.92a7.51,7.51,0,1,1,0-15.02H567.3c16.483-9.863,26.667-30.619,26.707-54.7a7.4,7.4,0,0,1,.282-2.022L655.346,55.271H287.2L225.27,275.245c-.363,29.91-14.154,55.8-36.153,67.735a7.506,7.506,0,0,1-3.583.909H51.092a7.51,7.51,0,1,1,0-15.02H183.548c16.483-9.863,26.67-30.618,26.71-54.7a7.4,7.4,0,0,1,.282-2.022L274.283,45.726a7.508,7.508,0,0,1,7.228-5.475h383.75a7.507,7.507,0,0,1,7.228,9.545l-63.468,225.45c-.363,29.906-14.155,55.8-36.149,67.733A7.524,7.524,0,0,1,569.289,343.889Z" transform="translate(120.264 110.944)" fill="#462be2"/>
      <path id="Контур_122" data-name="Контур 122" d="M90.431,296.852C80.28,285.628,149.85,43.492,170.152,43.492h363.6L464.033,295.9Z" transform="translate(246.562 119.872)" fill="#f5f5f7"/>
      <path id="Контур_123" data-name="Контур 123" d="M99.068,244.008a2.085,2.085,0,0,1-.261-.017,1.875,1.875,0,0,1-1.6-2.116c7.987-58.252,27.253-121.44,58.907-193.173a1.876,1.876,0,0,1,3.432,1.514c-31.507,71.409-50.681,134.269-58.62,192.169a1.875,1.875,0,0,1-1.855,1.623Z" transform="translate(267.841 131.144)" fill="#ebebed"/>
      <path id="Контур_124" data-name="Контур 124" d="M102.16,244.01a2.024,2.024,0,0,1-.256-.017,1.879,1.879,0,0,1-1.606-2.114C108.27,183.319,127.536,120.13,159.2,48.7a1.877,1.877,0,1,1,3.433,1.522c-31.521,71.1-50.7,133.959-58.621,192.163a1.875,1.875,0,0,1-1.856,1.624Z" transform="translate(276.364 131.143)" fill="#ebebed"/>
      <path id="Контур_125" data-name="Контур 125" d="M105.253,244.011a2.07,2.07,0,0,1-.256-.016,1.877,1.877,0,0,1-1.606-2.112C111.341,183.04,130.61,119.848,162.3,48.7a1.879,1.879,0,1,1,3.432,1.529c-31.543,70.819-50.718,133.675-58.62,192.158a1.874,1.874,0,0,1-1.856,1.626Z" transform="translate(284.888 131.142)" fill="#ebebed"/>
      <path id="Контур_126" data-name="Контур 126" d="M108.346,244.009a1.971,1.971,0,0,1-.253-.017,1.876,1.876,0,0,1-1.61-2.11c7.814-58.3,27.638-123.3,58.91-193.188a1.876,1.876,0,0,1,3.425,1.533c-31.126,69.559-50.846,134.21-58.617,192.154A1.875,1.875,0,0,1,108.346,244.009Z" transform="translate(293.411 131.144)" fill="#ebebed"/>
      <path id="Контур_127" data-name="Контур 127" d="M111.441,244.01a1.967,1.967,0,0,1-.253-.017,1.88,1.88,0,0,1-1.614-2.108c7.8-58.6,27.623-123.6,58.914-193.194a1.878,1.878,0,0,1,3.425,1.54C140.773,119.5,121.052,184.144,113.3,242.38A1.882,1.882,0,0,1,111.441,244.01Z" transform="translate(301.933 131.143)" fill="#ebebed"/>
      <path id="Контур_128" data-name="Контур 128" d="M114.533,244.011a1.917,1.917,0,0,1-.249-.017,1.878,1.878,0,0,1-1.617-2.107c7.778-58.866,27.6-123.867,58.914-193.2a1.879,1.879,0,0,1,3.425,1.547c-31.166,69-50.883,133.642-58.613,192.143A1.879,1.879,0,0,1,114.533,244.011Z" transform="translate(310.456 131.142)" fill="#ebebed"/>
      <path id="Контур_129" data-name="Контур 129" d="M117.625,244.009a1.914,1.914,0,0,1-.249-.017,1.878,1.878,0,0,1-1.617-2.1c7.759-59.149,27.583-124.152,58.921-193.2a1.877,1.877,0,1,1,3.417,1.551C146.913,118.95,127.192,183.6,119.484,242.375A1.878,1.878,0,0,1,117.625,244.009Z" transform="translate(318.977 131.144)" fill="#ebebed"/>
      <path id="Контур_130" data-name="Контур 130" d="M120.717,244.01a1.885,1.885,0,0,1-1.867-2.12c7.741-59.424,27.565-124.426,58.921-193.208a1.878,1.878,0,1,1,3.418,1.559c-31.2,68.439-50.923,133.082-58.613,192.134a1.88,1.88,0,0,1-1.859,1.635Z" transform="translate(327.501 131.143)" fill="#ebebed"/>
      <path id="Контур_131" data-name="Контур 131" d="M123.81,244.008a2.307,2.307,0,0,1-.246-.015,1.88,1.88,0,0,1-1.621-2.1c7.715-59.684,27.539-124.69,58.925-193.212a1.876,1.876,0,1,1,3.41,1.562c-31.224,68.18-50.946,132.822-58.61,192.13a1.88,1.88,0,0,1-1.859,1.637Z" transform="translate(336.024 131.144)" fill="#ebebed"/>
      <path id="Контур_132" data-name="Контур 132" d="M126.9,206.081a2.177,2.177,0,0,1-.242-.015,1.877,1.877,0,0,1-1.624-2.1A609.664,609.664,0,0,1,162.08,62.556a1.877,1.877,0,0,1,3.506,1.342,606.027,606.027,0,0,0-36.824,140.543,1.879,1.879,0,0,1-1.859,1.639Z" transform="translate(344.545 169.082)" fill="#ebebed"/>
      <path id="Контур_133" data-name="Контур 133" d="M130,244.01a2.165,2.165,0,0,1-.242-.015,1.878,1.878,0,0,1-1.624-2.1c7.667-60.223,27.495-125.232,58.925-193.223a1.879,1.879,0,1,1,3.41,1.577c-31.272,67.641-50.989,132.28-58.609,192.119A1.878,1.878,0,0,1,130,244.01Z" transform="translate(353.071 131.142)" fill="#ebebed"/>
      <path id="Контур_134" data-name="Контур 134" d="M133.088,244.009a2.1,2.1,0,0,1-.238-.015,1.878,1.878,0,0,1-1.628-2.1c7.638-60.47,27.466-125.483,58.925-193.227a1.876,1.876,0,1,1,3.4,1.58c-31.294,67.394-51.012,132.03-58.6,192.116A1.878,1.878,0,0,1,133.088,244.009Z" transform="translate(361.595 131.144)" fill="#ebebed"/>
      <path id="Контур_135" data-name="Контур 135" d="M136.181,244.01a2.1,2.1,0,0,1-.238-.015,1.878,1.878,0,0,1-1.628-2.1c7.62-60.746,27.444-125.758,58.925-193.232a1.878,1.878,0,1,1,3.4,1.588c-31.316,67.119-51.033,131.753-58.6,192.11A1.877,1.877,0,0,1,136.181,244.01Z" transform="translate(370.118 131.143)" fill="#ebebed"/>
      <path id="Контур_136" data-name="Контур 136" d="M139.273,244.011a1.706,1.706,0,0,1-.235-.015,1.876,1.876,0,0,1-1.632-2.094c7.591-61,27.414-126.009,58.925-193.238a1.879,1.879,0,0,1,3.4,1.6c-31.345,66.869-51.059,131.5-58.6,192.1a1.877,1.877,0,0,1-1.859,1.647Z" transform="translate(378.642 131.142)" fill="#ebebed"/>
      <path id="Контур_137" data-name="Контур 137" d="M142.366,244.009a1.724,1.724,0,0,1-.235-.015A1.876,1.876,0,0,1,140.5,241.9c7.561-61.241,27.389-126.257,58.929-193.241a1.876,1.876,0,1,1,3.4,1.6c-31.371,66.626-51.085,131.256-58.6,192.1A1.878,1.878,0,0,1,142.366,244.009Z" transform="translate(387.165 131.144)" fill="#ebebed"/>
      <path id="Контур_138" data-name="Контур 138" d="M145.459,244.01a1.646,1.646,0,0,1-.231-.015,1.874,1.874,0,0,1-1.636-2.092c7.539-61.506,27.367-126.524,58.929-193.245a1.878,1.878,0,0,1,3.4,1.606c-31.393,66.356-51.107,130.987-58.6,192.1a1.875,1.875,0,0,1-1.859,1.648Z" transform="translate(395.689 131.143)" fill="#ebebed"/>
      <path id="Контур_139" data-name="Контур 139" d="M148.552,195.7a1.985,1.985,0,0,1-.231-.013,1.878,1.878,0,0,1-1.635-2.092A579.833,579.833,0,0,1,177.906,66.355a1.876,1.876,0,1,1,3.528,1.28A576.279,576.279,0,0,0,150.411,194.05,1.874,1.874,0,0,1,148.552,195.7Z" transform="translate(404.208 179.465)" fill="#ebebed"/>
      <path id="Контур_140" data-name="Контур 140" d="M151.644,244.009a1.926,1.926,0,0,1-.227-.013,1.877,1.877,0,0,1-1.639-2.09c7.477-61.989,27.3-127.01,58.932-193.254a1.877,1.877,0,0,1,3.388,1.617c-31.452,65.875-51.165,130.5-58.595,192.088A1.876,1.876,0,0,1,151.644,244.009Z" transform="translate(412.736 131.143)" fill="#ebebed"/>
      <path id="Контур_141" data-name="Контур 141" d="M154.735,244.011a1.924,1.924,0,0,1-.227-.013,1.876,1.876,0,0,1-1.639-2.089c7.455-62.251,27.286-127.272,58.936-193.26a1.879,1.879,0,1,1,3.388,1.625c-31.474,65.615-51.187,130.24-58.6,192.083a1.876,1.876,0,0,1-1.86,1.654Z" transform="translate(421.257 131.142)" fill="#ebebed"/>
      <path id="Контур_142" data-name="Контур 142" d="M157.828,244.009A1.839,1.839,0,0,1,157.6,244a1.876,1.876,0,0,1-1.643-2.087c7.426-62.489,27.257-127.512,58.94-193.265a1.877,1.877,0,1,1,3.381,1.632c-31.5,65.377-51.217,130-58.595,192.077A1.878,1.878,0,0,1,157.828,244.009Z" transform="translate(429.781 131.143)" fill="#ebebed"/>
      <path id="Контур_143" data-name="Контур 143" d="M160.921,244.01a1.875,1.875,0,0,1-1.867-2.1c7.4-62.733,27.231-127.758,58.94-193.269a1.878,1.878,0,1,1,3.381,1.635c-31.529,65.135-51.243,129.757-58.595,192.074a1.872,1.872,0,0,1-1.859,1.658Z" transform="translate(438.304 131.143)" fill="#ebebed"/>
      <path id="Контур_144" data-name="Контур 144" d="M164.016,244.009a1.878,1.878,0,0,1-1.87-2.1c7.371-62.975,27.2-128,58.947-193.274a1.876,1.876,0,0,1,3.374,1.643c-31.554,64.891-51.268,129.513-58.587,192.068a1.88,1.88,0,0,1-1.863,1.659Z" transform="translate(446.826 131.144)" fill="#ebebed"/>
      <path id="Контур_145" data-name="Контур 145" d="M167.108,244.009a1.806,1.806,0,0,1-.22-.013,1.879,1.879,0,0,1-1.65-2.081c7.338-63.208,27.172-128.237,58.947-193.278a1.877,1.877,0,1,1,3.374,1.647c-31.587,64.66-51.3,129.28-58.588,192.064a1.88,1.88,0,0,1-1.863,1.661Z" transform="translate(455.349 131.143)" fill="#ebebed"/>
      <path id="Контур_146" data-name="Контур 146" d="M170.2,244.011a1.813,1.813,0,0,1-.22-.013,1.876,1.876,0,0,1-1.65-2.079c7.312-63.443,27.143-128.473,58.943-193.284a1.879,1.879,0,1,1,3.374,1.654c-31.613,64.425-51.327,129.043-58.584,192.058a1.879,1.879,0,0,1-1.863,1.663Z" transform="translate(463.872 131.142)" fill="#ebebed"/>
      <path id="Контур_147" data-name="Контур 147" d="M173.294,244.009a1.73,1.73,0,0,1-.216-.013,1.877,1.877,0,0,1-1.654-2.077c7.279-63.679,27.11-128.712,58.947-193.289a1.877,1.877,0,0,1,3.366,1.661c-31.643,64.189-51.353,128.805-58.58,192.053A1.879,1.879,0,0,1,173.294,244.009Z" transform="translate(472.396 131.144)" fill="#ebebed"/>
      <path id="Контур_148" data-name="Контур 148" d="M176.387,244.01a1.753,1.753,0,0,1-.217-.013,1.875,1.875,0,0,1-1.654-2.076c7.246-63.906,27.077-128.94,58.947-193.292a1.878,1.878,0,0,1,3.366,1.665c-31.679,63.963-51.385,128.578-58.58,192.05A1.878,1.878,0,0,1,176.387,244.01Z" transform="translate(480.92 131.143)" fill="#ebebed"/>
      <path id="Контур_149" data-name="Контур 149" d="M179.479,164.711a2.111,2.111,0,0,1-.213-.011,1.883,1.883,0,0,1-1.657-2.078,536.281,536.281,0,0,1,16.722-84.885,1.878,1.878,0,1,1,3.616,1.016,532.613,532.613,0,0,0-16.6,84.291A1.878,1.878,0,0,1,179.479,164.711Z" transform="translate(489.435 210.462)" fill="#ebebed"/>
      <path id="Контур_150" data-name="Контур 150" d="M268.1,43.946c-15.35,8.913-37.45,54.3-56.005,118.03C176.539,284.1,178.85,272.618,198.656,285.339c18.974,12.186,12.193,2.076,12.193,2.076L274.3,43.327Z" transform="translate(508.224 119.417)" fill="#ddd"/>
      <path id="Контур_151" data-name="Контур 151" d="M29.561,159.678S48.6,139.789,57.15,123.24a5.465,5.465,0,0,1,5.529-2.921,1155.522,1155.522,0,0,0,203.571,4.413c60.2-4.271,261.775-33.555,351.86-13.239a17.629,17.629,0,0,1,11.749,25.222c-5.2,10.041-12.718,20.71-21.943,22.963Z" transform="translate(81.441 287.688)" fill="#fff"/>
      <path id="Контур_152" data-name="Контур 152" d="M133.3,117.87a232.386,232.386,0,0,1-7.163,41.792H341.862c9.218-2.248,16.735-12.9,21.93-22.924a17.668,17.668,0,0,0-11.9-25.273c-50.541-11.355-136.029-7.161-212.016-.5A7.189,7.189,0,0,0,133.3,117.87Z" transform="translate(347.658 287.689)" fill="#ddd"/>
      <path id="Контур_153" data-name="Контур 153" d="M524.423,132.133H28.742a7.51,7.51,0,0,1,0-15.02H524.423a7.51,7.51,0,1,1,0,15.02Z" transform="translate(58.493 322.749)" fill="#5e4ef9"/>
      <path id="Контур_154" data-name="Контур 154" d="M349.309,343.89H130.94a7.51,7.51,0,1,1,0-15.02H347.322c16.483-9.863,26.667-30.619,26.707-54.7a7.4,7.4,0,0,1,.282-2.022L438.054,45.726a7.509,7.509,0,1,1,14.455,4.07l-63.468,225.45c-.363,29.906-14.155,55.793-36.149,67.733A7.524,7.524,0,0,1,349.309,343.89Z" transform="translate(340.244 110.943)" fill="#462be2"/>
      <path id="Контур_155" data-name="Контур 155" d="M104.089,305.689h0c-8.894,0-18.238-10.505-20.765-23.344L54.986,138.321c-2.526-12.839,2.684-23.344,11.579-23.344h0c8.894,0,18.239,10.505,20.765,23.344l28.338,144.024C118.194,295.184,112.983,305.689,104.089,305.689Z" transform="translate(149.781 316.885)" fill="#c0c0ce"/>
      <path id="Контур_156" data-name="Контур 156" d="M104.581,305.689h0c-8.894,0-19.257-10.505-23.028-23.344l-42.3-144.024c-3.77-12.839.422-23.344,9.316-23.344h0c8.894,0,19.257,10.505,23.028,23.344l42.3,144.024C117.668,295.184,113.476,305.689,104.581,305.689Z" transform="translate(104.375 316.885)" fill="#c0c0ce"/>
      <path id="Контур_157" data-name="Контур 157" d="M141.779,66.491a316.821,316.821,0,0,1,2.166,51.563,199.966,199.966,0,0,1-2.745,26.292,119.894,119.894,0,0,1-3.239,13.486,84.044,84.044,0,0,1-5.38,13.27,119.1,119.1,0,0,1-15.118,22.8A124.6,124.6,0,0,1,98.1,212.68a101.165,101.165,0,0,1-23.482,13.937A62.843,62.843,0,0,1,46.982,231.6a6.7,6.7,0,0,1-.13-13.351l.164-.014A52.451,52.451,0,0,0,67.627,211.6,89.36,89.36,0,0,0,85.9,198.28a119.528,119.528,0,0,0,26.69-36.683,64.952,64.952,0,0,0,3.544-10.059,97.539,97.539,0,0,0,2.12-10.927,227.036,227.036,0,0,0,1.87-23.484c.33-7.988.335-16.074.1-24.174-.091-8.059-.488-16.344-.867-24.192l-.015-.313a11.266,11.266,0,0,1,22.43-1.957Z" transform="translate(112.348 156.1)" fill="#ef9d7f"/>
      <path id="Контур_158" data-name="Контур 158" d="M85.481,52.355c7.474-1.92,12.206,22.09,15.357,34.913a283.442,283.442,0,0,1,3.937,39.865,6.63,6.63,0,0,1-7.136,6.926l-31.431-2.445a6.638,6.638,0,0,1-6.108-6.285C59.205,108.245,59,59.157,85.481,52.355Z" transform="translate(164.884 143.989)" fill="#3021bf"/>
      <path id="Контур_159" data-name="Контур 159" d="M47.257,159.334c4.57,9.408,12.245,30.452,12.245,30.452l13.122-3.218s-6.19-25.5-8.665-32.928Z" transform="translate(130.234 423.412)" fill="#ffbea4"/>
      <path id="Контур_160" data-name="Контур 160" d="M61.187,162.22c3.527,9.408,9.108,30.453,9.108,30.453L82.4,189.454s-3.942-25.5-5.7-32.928Z" transform="translate(168.625 431.367)" fill="#ffbea4"/>
      <path id="Контур_161" data-name="Контур 161" d="M177.461,80.154a38.985,38.985,0,0,0-38.144-31.12c-.246,0-.495,0-.741.008l-34.5.647A11.248,11.248,0,0,0,99.1,50.95L79.861,60.917v0A34.487,34.487,0,0,0,62.153,98.936,612.96,612.96,0,0,1,76.6,237.288,11.269,11.269,0,0,0,89.127,248.92l87.652-9.929a11.268,11.268,0,0,0,9.97-10.412,560.314,560.314,0,0,0-9.288-148.425Z" transform="translate(169.042 135.142)" fill="#462be2"/>
      <path id="Контур_162" data-name="Контур 162" d="M88.743,89.544a21.383,21.383,0,1,1,21.382-21.382A21.383,21.383,0,0,1,88.743,89.544Zm0-41.827a20.444,20.444,0,1,0,20.443,20.444A20.444,20.444,0,0,0,88.743,47.716Z" transform="translate(185.633 128.914)" fill="#fff"/>
      <path id="Контур_163" data-name="Контур 163" d="M78.06,76.893a5.763,5.763,0,0,1-4.573-2.532,10.533,10.533,0,0,1-1.969-6.106c-.1-4.833,2.725-8.823,6.285-8.9l.1,0a5.761,5.761,0,0,1,4.572,2.532,10.534,10.534,0,0,1,1.969,6.106h0a10.511,10.511,0,0,1-1.72,6.177,5.736,5.736,0,0,1-4.565,2.719Zm-.154-16.6-.081,0c-3.047.062-5.456,3.623-5.368,7.939a9.607,9.607,0,0,0,1.778,5.557,4.865,4.865,0,0,0,3.825,2.16l.081,0a4.836,4.836,0,0,0,3.817-2.314,9.585,9.585,0,0,0,1.551-5.625h0a9.607,9.607,0,0,0-1.779-5.557,4.86,4.86,0,0,0-3.825-2.16Z" transform="translate(197.088 163.58)" fill="#fff"/>
      <path id="Контур_164" data-name="Контур 164" d="M78.9,82.637c-3.52,0-6.447-3.847-6.546-8.636a10.538,10.538,0,0,1,1.72-6.179,5.739,5.739,0,0,1,4.566-2.717l.1,0a5.762,5.762,0,0,1,4.573,2.532,10.53,10.53,0,0,1,1.969,6.1h0a10.5,10.5,0,0,1-1.72,6.177A5.736,5.736,0,0,1,79,82.635Zm-.158-16.595-.081,0a4.823,4.823,0,0,0-3.814,2.314A9.579,9.579,0,0,0,73.3,73.983c.088,4.278,2.6,7.714,5.6,7.715l.081,0A4.835,4.835,0,0,0,82.8,79.382a9.582,9.582,0,0,0,1.551-5.625h0A9.611,9.611,0,0,0,82.571,68.2a4.863,4.863,0,0,0-3.825-2.158Z" transform="translate(199.387 179.416)" fill="#fff"/>
      <path id="Контур_165" data-name="Контур 165" d="M190.327,101.3l-10.013-.011q-9.983.088-19.937.569c-13.291.666-26.6,1.773-40.017,3.65a305.053,305.053,0,0,0-40.544,8.214,176.251,176.251,0,0,0-41.2,16.807h0l-2.576,1.433a23.309,23.309,0,0,0-6.316,35.318c.645.763,1.714,2.266,2.607,3.515l2.808,4.025c1.864,2.755,3.738,5.533,5.566,8.39,3.692,5.667,7.272,11.51,10.811,17.394,7.054,11.8,13.78,23.92,20.3,36.2q9.737,18.45,18.716,37.441c6.015,12.638,11.719,25.454,17.317,38.352l23.383-7.8c-3.484-13.916-7.109-27.832-11.093-41.681S111.9,235.457,107.34,221.7c-4.612-13.747-9.5-27.455-14.861-41.1q-2.785-7.03-5.741-14.051c2.373-.778,4.785-1.52,7.247-2.2a253.27,253.27,0,0,1,33.584-6.765c11.574-1.625,23.43-2.617,35.332-3.214,5.954-.289,11.93-.458,17.889-.511l8.908.009h.086a8.7,8.7,0,0,0,8.807-8.257l2.178-44.037C196.866,101.4,193.768,101.35,190.327,101.3Z" transform="translate(66.729 279.167)" fill="#17203a"/>
      <path id="Контур_166" data-name="Контур 166" d="M242.819,131.725l-2.234-27.831a11.263,11.263,0,0,0-12.5-10.293l-93.545,10.6a11.263,11.263,0,0,0-9.989,11.562l.387,11.816c-8.441,1.944-16.893,4.046-25.386,6.532a307.573,307.573,0,0,0-40.1,14.385h0l-2.113.9a23.6,23.6,0,0,0-11.035,33.483c.59,1.018,1.433,2.7,2.165,4.153l2.265,4.6,4.446,9.475c2.939,6.374,5.766,12.878,8.561,19.407,5.561,13.085,10.824,26.4,15.908,39.812s9.9,26.984,14.568,40.623,9.085,27.395,13.414,41.2l24.392-5.484c-2.136-14.525-4.382-29.06-6.9-43.574s-5.211-29.027-8.213-43.519-6.222-28.983-9.829-43.473q-2.239-8.9-4.664-17.816c3.85-1.269,7.744-2.5,11.7-3.657,11.543-3.389,23.593-6.137,35.684-8.724,12.115-2.572,24.444-4.707,36.795-6.67,3.62-.565,7.281-1.108,10.95-1.637l14.557-.77a32.546,32.546,0,0,0,10.739-2.452c.22-.024.449-.053.669-.077l-.02-.2A32.466,32.466,0,0,0,242.819,131.725Z" transform="translate(118.871 257.783)" fill="#252f5a"/>
      <path id="Контур_167" data-name="Контур 167" d="M64.971,105.865c-.05,4.092-.156,11.7-.289,16.164a.924.924,0,0,0,.987.954c9.642-.492,85.123-4.491,115.022-10.534a.9.9,0,0,0,.739-.89,155.82,155.82,0,0,0-.7-16.125,5.209,5.209,0,0,0-5.9-4.673c-16.4,2.265-67.61,9.125-107.056,12.1a3.035,3.035,0,0,0-2.811,3.008Z" transform="translate(178.262 249.991)" fill="#3021bf"/>
      <path id="Контур_168" data-name="Контур 168" d="M96.615,107.5a14.972,14.972,0,0,1-10.092-3.9c-20.1-18.241-22.2-46.938-22.379-50.148a15.02,15.02,0,0,1,29.992-1.692c.348,5.378,3.282,21.159,12.578,29.6a15.02,15.02,0,0,1-10.1,26.142Z" transform="translate(176.706 103.593)" fill="#ffbea4"/>
      <path id="Контур_169" data-name="Контур 169" d="M86.688,45.945S48.075,54.989,73.93,74.074C96.066,90.414,102.8,54.858,86.688,45.945Z" transform="translate(179.176 126.618)" fill="#dd8b66"/>
      <path id="Контур_170" data-name="Контур 170" d="M114.884,58.515c.11,2.633.357,5.836.591,8.758l.84,8.867c.321,2.9.662,5.787,1.057,8.485s.825,5.284,1.227,7.353l.39,2.011a26.764,26.764,0,0,1-51.081,15.148c-1.64-4.05-2.9-7.678-4.075-11.247s-2.183-6.975-3.17-10.393-1.879-6.771-2.752-10.142c-.875-3.432-1.677-6.592-2.5-10.339l-.164-.746a30.187,30.187,0,1,1,58.958-13A32.4,32.4,0,0,1,114.884,58.515Z" transform="translate(150.28 81.483)" fill="#ffbea4"/>
      <path id="Контур_171" data-name="Контур 171" d="M63.314,45.968a2.3,2.3,0,1,0,1.593-2.829A2.3,2.3,0,0,0,63.314,45.968Z" transform="translate(174.25 118.611)" fill="#252f5a"/>
      <path id="Контур_172" data-name="Контур 172" d="M56.881,47.73A2.3,2.3,0,1,0,58.473,44.9,2.3,2.3,0,0,0,56.881,47.73Z" transform="translate(156.52 123.466)" fill="#252f5a"/>
      <path id="Контур_173" data-name="Контур 173" d="M62.47,44.454l-.755-1.328c.352-.2,8.819-4.937,15.215-.73l-.843,1.276C70.453,39.963,62.551,44.408,62.47,44.454Z" transform="translate(170.077 112.018)" fill="#252f5a"/>
      <path id="Контур_174" data-name="Контур 174" d="M65.606,58.343l-.88-1.247a31.08,31.08,0,0,0,8.485-9.934l1.364.693a32.2,32.2,0,0,1-8.969,10.488Z" transform="translate(178.374 129.973)" fill="#252f5a"/>
      <path id="Контур_175" data-name="Контур 175" d="M55.921,48.457l-1.474-.4a9.3,9.3,0,0,1,10.279-6.443l-.169,1.518a7.583,7.583,0,0,0-8.636,5.323Z" transform="translate(150.049 114.361)" fill="#252f5a"/>
      <path id="Контур_176" data-name="Контур 176" d="M68.181,63.243H61.569l.169-.906A30.106,30.106,0,0,0,59.5,44.468l1.4-.612A31.739,31.739,0,0,1,63.4,61.714h4.785Z" transform="translate(163.987 120.86)" fill="#dd8b66"/>
      <path id="Контур_177" data-name="Контур 177" d="M136.678,61.458c-.233-12.8-.52-18.529-7.242-18.736l5.213-2.983a6.253,6.253,0,0,0-5.4.514,7.741,7.741,0,0,0-.409-7.953l-2.509,8.65c-4.236-9.484-17.025-17.481-36.867-8.142a74.031,74.031,0,0,1-29.958,8.244,20.778,20.778,0,0,0,6.711,5,103.7,103.7,0,0,1-14.848.139,17.024,17.024,0,0,0,9.508,7.361c-5.825.54-10.482.474-10.482.474a19.292,19.292,0,0,0,13.767,8c-4.422,2.2-7.6,3.5-7.6,3.5,9,8.117,32.317,1.714,45.231-10.092,7.358,14.305,20.22,30.539,25.92,30.036C136.951,84.65,137.05,81.886,136.678,61.458Z" transform="translate(138.886 78.924)" fill="#252f5a"/>
      <path id="Контур_178" data-name="Контур 178" d="M67.8,50.416c3.107-9.355,8.187-14.616,14.02-7.305,8.469,10.617-.805,27.857-6.966,21.814A26.378,26.378,0,0,1,67.8,50.416Z" transform="translate(186.854 109.305)" fill="#ffbea4"/>
      <path id="Контур_179" data-name="Контур 179" d="M93.793,304.584A1289.8,1289.8,0,0,0,55.026,147.33,9.738,9.738,0,0,1,60.6,135.378c52.944-21.643,128-30.013,128.748-30.093l.1.932c-.752.082-75.676,8.437-128.5,30.031a8.8,8.8,0,0,0-5.031,10.794,1291.434,1291.434,0,0,1,38.8,157.375Z" transform="translate(150.387 290.173)" fill="#fff" opacity="0.2"/>
      <path id="Контур_180" data-name="Контур 180" d="M89.2,163.377a34.076,34.076,0,0,1-11.425,7.4,2.608,2.608,0,0,0-1.6,1.808c-1.472,5.723-8.373,26.17-16.166,31.748-8.691,6.221,13.248,6.183,20.3-4.6a87.942,87.942,0,0,1,17.3-21.116c4-3.144,1.918-9.857-4.458-15.522a2.789,2.789,0,0,0-3.958.281Z" transform="translate(159.871 447.567)" fill="#3932d6"/>
      <path id="Контур_181" data-name="Контур 181" d="M83.147,161.4a34.07,34.07,0,0,1-12.8,4.62,2.608,2.608,0,0,0-1.964,1.4c-2.73,5.24-14.085,23.592-22.939,27.259-9.875,4.09,11.5,9.024,20.819.12a87.94,87.94,0,0,1,21.633-16.647c4.605-2.157,4.1-9.166-.825-16.128a2.789,2.789,0,0,0-3.919-.624Z" transform="translate(118.204 443.321)" fill="#3021bf"/>
      <path id="Контур_182" data-name="Контур 182" d="M63.623,171.927a4.843,4.843,0,0,1-2.641-.755,1.878,1.878,0,0,1-.884-1.837,5.307,5.307,0,0,1,3.484-3.751,7.425,7.425,0,0,1,7.778,1.683.458.458,0,0,1,.161.338.467.467,0,0,1-.136.345,13.517,13.517,0,0,1-7.763,3.978Zm2.493-5.889a6,6,0,0,0-2.185.418,4.375,4.375,0,0,0-2.9,2.97.938.938,0,0,0,.455.953c3.15,2.01,7.554-1.569,8.856-2.743a6.732,6.732,0,0,0-4.228-1.6Z" transform="translate(165.583 455.067)" fill="#fff"/>
      <path id="Контур_183" data-name="Контур 183" d="M69.745,172.324h-.026a13.5,13.5,0,0,1-8.078-3.04,4.236,4.236,0,0,1-1.063-3.234,2.414,2.414,0,0,1,2.273-2.457c.059,0,.121,0,.187,0,2.321,0,5.988,2.75,7.165,8.166a.47.47,0,0,1-.1.4.475.475,0,0,1-.359.165Zm-6.692-7.8c-.047,0-.1,0-.139,0a1.5,1.5,0,0,0-1.4,1.591,3.263,3.263,0,0,0,.832,2.541,11.619,11.619,0,0,0,6.788,2.666C67.948,166.871,64.9,164.528,63.053,164.528Z" transform="translate(166.89 450.83)" fill="#fff"/>
      <path id="Контур_184" data-name="Контур 184" d="M50.8,168.8a5.068,5.068,0,0,1-3.528-1.28,1.885,1.885,0,0,1-.561-1.962,5.291,5.291,0,0,1,4.07-3.1,7.421,7.421,0,0,1,7.382,2.981.468.468,0,0,1,.1.359.459.459,0,0,1-.194.315A14.9,14.9,0,0,1,50.8,168.8Zm1.4-5.548a6.137,6.137,0,0,0-1.225.125,4.371,4.371,0,0,0-3.355,2.431.936.936,0,0,0,.286,1.016c2.765,2.53,7.712-.257,9.193-1.192a6.466,6.466,0,0,0-4.9-2.38Z" transform="translate(128.508 447.367)" fill="#fff"/>
      <path id="Контур_185" data-name="Контур 185" d="M55.614,170.553a.479.479,0,0,1-.1-.011,13.473,13.473,0,0,1-7.44-4.375,4.21,4.21,0,0,1-.495-3.366,2.4,2.4,0,0,1,2.655-2.031c2.3.242,5.61,3.608,5.853,9.3a.46.46,0,0,1-.169.377A.454.454,0,0,1,55.614,170.553Zm-5.676-8.859a1.526,1.526,0,0,0-1.452,1.342,3.283,3.283,0,0,0,.385,2.644A11.608,11.608,0,0,0,55.1,169.46c-.418-4.708-3.139-7.565-4.972-7.756A1.76,1.76,0,0,0,49.937,161.694Z" transform="translate(130.691 443.013)" fill="#fff"/>
      <path id="Контур_186" data-name="Контур 186" d="M186.523,109.768a255.72,255.72,0,0,0-16.8-50.237A11.262,11.262,0,0,0,148.9,68.1l.147.395c2.73,7.327,5.586,15.234,7.908,22.979,2.454,7.764,4.661,15.575,6.346,23.375a147.445,147.445,0,0,1,3.34,23,42.665,42.665,0,0,1-2.5,19.225c-.341.837-1.6,2.987-2.59,4.65l-3.153,5.186q-3.208,5.13-6.675,9.991a137.016,137.016,0,0,1-15.051,18.036,70.353,70.353,0,0,1-38.86,20.8,130.386,130.386,0,0,1-18.583-3.917,8.084,8.084,0,0,0-3.893-.127C68.019,213.02,60.3,227.8,62.27,234.967c1.224,4.446,7.391,1.247,14.236.248,14.835-2.165,32.811-2.23,33.052-5.818.032-.481.013-.883.023-1.328a76.793,76.793,0,0,0,15.988-4.313,95,95,0,0,0,23.888-14.526,137.159,137.159,0,0,0,19.113-19.451c2.828-3.49,5.5-7.067,8.065-10.687l3.762-5.465a63.318,63.318,0,0,0,3.877-6.271,50.359,50.359,0,0,0,4.943-15.623,77.863,77.863,0,0,0,.882-14.713A144.065,144.065,0,0,0,186.523,109.768Z" transform="translate(170.753 145.795)" fill="#ffbea4"/>
      <path id="Контур_187" data-name="Контур 187" d="M87.654,49.313c-7.67-.848-3.033,25.377-2.29,38.561s4.965,37.88,4.965,37.88l38.529-6.222a4.886,4.886,0,0,0,4.057-5.642C130.309,98.684,119.824,52.871,87.654,49.313Z" transform="translate(229.56 135.848)" fill="#462be2"/>
      <path id="Контур_188" data-name="Контур 188" d="M89.408,115.656c-.044-.247-4.236-24.873-4.973-37.933-.073-1.328-.165-2.782-.264-4.322-.392-6.219-.884-13.958-.645-20.414l.939.033c-.238,6.41.249,14.124.645,20.323.1,1.542.187,3,.264,4.329.734,13.007,4.918,37.579,4.958,37.827Z" transform="translate(230.014 146.028)" fill="#fff"/>
      <path id="Контур_189" data-name="Контур 189" d="M59.167,163.758l2.7,9.906,29.612-4.953-1.761-12.185Z" transform="translate(163.057 431.365)" fill="#37477c"/>
      <path id="Контур_190" data-name="Контур 190" d="M44.994,161.884l3.072,9.793,29.4-6.072L75.244,153.5Z" transform="translate(123.998 423.012)" fill="#252f5a"/>
      <rect id="Прямоугольник_2" data-name="Прямоугольник 2" width="0.939" height="21.892" transform="translate(290.381 119.115)" fill="#fff"/>
      <path id="Контур_191" data-name="Контур 191" d="M79.4,42.179a2.668,2.668,0,1,1,2.512-1.773h0A2.662,2.662,0,0,1,80.54,41.92,2.631,2.631,0,0,1,79.4,42.179Zm0-4.4a1.731,1.731,0,1,0,1.628,2.312l0,0a1.73,1.73,0,0,0-1.632-2.31Z" transform="translate(211.454 101.5)" fill="#fff"/>
      <path id="Контур_192" data-name="Контур 192" d="M118.073,68.365a103.025,103.025,0,0,1-30.3-6.634C70.574,55.589,53.937,46,55.866,40.58l5.016-14.044.888.315L56.753,40.9c-1.338,3.753,10.935,12.666,31.338,19.952s35.548,8.172,36.886,4.413l5.016-14.045.887.315-5.016,14.045C125.169,67.52,122.282,68.363,118.073,68.365Z" transform="translate(153.541 73.106)" fill="#fff"/>
      <path id="Контур_193" data-name="Контур 193" d="M158.326,63.287q-.159,0-.33-.017l-52.7-5.456a14.685,14.685,0,0,1-6.542-2.338L54.514,26.316A2.88,2.88,0,0,1,53.37,22.9a2.839,2.839,0,0,1,3.047-1.921l52.7,5.453a14.687,14.687,0,0,1,6.546,2.338L159.9,57.935a2.916,2.916,0,0,1-1.573,5.352ZM56.083,21.9a1.98,1.98,0,0,0-1.056,3.628l44.239,29.16a13.739,13.739,0,0,0,6.124,2.188l52.7,5.456a1.9,1.9,0,0,0,2.068-1.3,1.934,1.934,0,0,0-.774-2.314L115.151,29.556a13.772,13.772,0,0,0-6.128-2.187l-52.7-5.453a2.163,2.163,0,0,0-.238-.013Z" transform="translate(146.598 57.741)" fill="#fff"/>
      <path id="Контур_194" data-name="Контур 194" d="M129.021,46.892,89.132,42.761a14.68,14.68,0,0,1-6.546-2.338L59.722,25.352l.514-.785L83.1,39.639a13.771,13.771,0,0,0,6.128,2.187l39.889,4.131Z" transform="translate(164.59 67.683)" fill="#fff"/>
      <path id="Контур_195" data-name="Контур 195" d="M86.4,113.618l-.125,0a1.879,1.879,0,0,1-1.749-2,11.822,11.822,0,0,0-2.2-9.148,13.936,13.936,0,0,0-10.52-3,1.877,1.877,0,1,1,0-3.755A17.191,17.191,0,0,1,85.075,99.9a15.225,15.225,0,0,1,3.2,11.966A1.878,1.878,0,0,1,86.4,113.618Z" transform="translate(192.73 263.479)" fill="#252f5a"/>
      <path id="Контур_196" data-name="Контур 196" d="M90.6,97.187c.144,1.751-4.417,3.556-10.187,4.031s-10.564-.561-10.708-2.312l-.122-1.478,20.9-1.719Z" transform="translate(191.774 263.76)" fill="#f5f5f7"/>
      <path id="Контур_197" data-name="Контур 197" d="M90.485,97.49c.144,1.752-4.417,3.556-10.187,4.031s-10.564-.561-10.708-2.312,4.417-3.556,10.187-4.031S90.341,95.738,90.485,97.49Z" transform="translate(191.772 261.979)" fill="#252f5a"/>
      <path id="Контур_198" data-name="Контур 198" d="M86.366,96.691c.083,1-3.465,2.111-7.923,2.478s-8.139-.148-8.222-1.149,3.465-2.111,7.923-2.478S86.284,95.69,86.366,96.691Z" transform="translate(193.516 262.973)" fill="#f5f5f7"/>
      <path id="Контур_199" data-name="Контур 199" d="M20.059,132.206a6.5,6.5,0,0,0,7.346,5.475l218.017-31.813a6.5,6.5,0,0,0,5.475-7.346Z" transform="translate(55.262 271.515)" fill="#23d87d"/>
      <path id="Контур_200" data-name="Контур 200" d="M61.341,109.586h0a7.469,7.469,0,0,0,8.261,5.342l62.088-9.06a6.5,6.5,0,0,0,5.476-7.346Z" transform="translate(169.051 271.512)" fill="#16b260"/>
      <path id="Контур_201" data-name="Контур 201" d="M200.035,189.718,54.557,210.946a13.978,13.978,0,0,1-14.836-9.523L10.4,104.667A9.735,9.735,0,0,1,18.451,91.8L163.929,70.576A13.978,13.978,0,0,1,178.765,80.1l29.322,96.757a9.735,9.735,0,0,1-8.052,12.862Z" transform="translate(27.163 194.266)" fill="#23d87d"/>
      <path id="Контур_202" data-name="Контур 202" d="M199.154,189.846,53.676,211.075a13.977,13.977,0,0,1-14.836-9.523L9.518,104.8A9.735,9.735,0,0,1,17.57,91.933L163.048,70.7a13.978,13.978,0,0,1,14.836,9.523l29.322,96.757a9.735,9.735,0,0,1-8.052,12.863Z" transform="translate(24.736 194.62)" fill="#33ff9d"/>
      <path id="Контур_203" data-name="Контур 203" d="M48.888,205.651a9.978,9.978,0,0,1-9.307-6.848L10.26,102.046a7.264,7.264,0,0,1,.721-6.093,7.122,7.122,0,0,1,5.1-3.194L161.556,71.531a9.9,9.9,0,0,1,10.535,6.76l29.321,96.757a7.24,7.24,0,0,1-.719,6.091,7.109,7.109,0,0,1-5.1,3.194L50.116,205.562A8.366,8.366,0,0,1,48.888,205.651Zm1.1-1.018.066.464-.066-.464,145.477-21.228a6.2,6.2,0,0,0,4.441-2.769,6.339,6.339,0,0,0,.616-5.317L171.193,78.563a8.929,8.929,0,0,0-9.505-6.1L16.215,93.687a6.2,6.2,0,0,0-4.441,2.769,6.338,6.338,0,0,0-.616,5.319l29.321,96.757A8.933,8.933,0,0,0,49.984,204.634Z" transform="translate(27.26 196.963)" fill="#fff"/>
      <path id="Контур_204" data-name="Контур 204" d="M50.033,130.878a26.824,26.824,0,0,1-5.1-.495A6.986,6.986,0,0,1,39.9,126.43a6.338,6.338,0,0,1,.275-5.885v0A15.79,15.79,0,0,0,41.4,107.9,21.37,21.37,0,0,0,32.941,96.61,6.69,6.69,0,0,1,30.025,90.3a6.6,6.6,0,0,1,4.114-5.484,23.535,23.535,0,0,1,5.53-1.5,29.318,29.318,0,0,1,31.136,20,21.375,21.375,0,0,1-2.116,17.923,20.919,20.919,0,0,1-14.98,9.371,25.6,25.6,0,0,1-3.678.264ZM41.8,121.487a4.5,4.5,0,0,0-.187,4.166,5.107,5.107,0,0,0,3.682,2.886,24.3,24.3,0,0,0,8.148.216,19.072,19.072,0,0,0,13.667-8.519,19.524,19.524,0,0,0,1.9-16.371A27.337,27.337,0,0,0,39.941,85.176a21.65,21.65,0,0,0-5.09,1.377A4.744,4.744,0,0,0,31.892,90.5,4.843,4.843,0,0,0,34,95.062a23.245,23.245,0,0,1,9.2,12.288,17.633,17.633,0,0,1-1.4,14.138Z" transform="translate(82.602 229.103)" fill="#fff"/>
      <path id="Контур_205" data-name="Контур 205" d="M35.432,105.447A28.745,28.745,0,1,1,64.177,76.7a28.744,28.744,0,0,1-28.745,28.745Zm0-56.55A27.806,27.806,0,1,0,63.238,76.7,27.806,27.806,0,0,0,35.432,48.9Z" transform="translate(18.425 132.168)" fill="#33ff9d"/>
      <path id="Контур_206" data-name="Контур 206" d="M31.093,38.672A15.547,15.547,0,1,1,15.547,23.126,15.547,15.547,0,0,1,31.093,38.672Z" transform="translate(0 63.711)" fill="#fff"/>
      <path id="Контур_207" data-name="Контур 207" d="M228.4,93.385A16.016,16.016,0,1,1,244.417,77.37,16.017,16.017,0,0,1,228.4,93.385Zm0-31.094a15.078,15.078,0,1,0,15.075,15.076A15.078,15.078,0,0,0,228.4,62.291Z" transform="translate(585.313 169.081)" fill="#fff"/>
      <path id="Контур_208" data-name="Контур 208" d="M109.208,236.317a9.154,9.154,0,1,1-9.154-9.154,9.154,9.154,0,0,1,9.154,9.154Z" transform="translate(250.509 626.037)" fill="#252f5a"/>
      <path id="Контур_209" data-name="Контур 209" d="M184.549,21.214l-14.99,25.97h29.984Z" transform="translate(467.284 58.445)" fill="#ffa76c"/>
      <path id="Контур_210" data-name="Контур 210" d="M44.97,82.846l-.213-.786L36.789,52.311,67.32,60.492l-.572.576ZM38.116,53.638,45.454,81.03,65.509,60.98Z" transform="translate(101.353 144.162)" fill="#ffa76c"/>
      <rect id="Прямоугольник_3" data-name="Прямоугольник 3" width="25.532" height="25.532" transform="translate(792.195 320.433) rotate(-45)" fill="#252f5a"/>
      <path id="Контур_211" data-name="Контур 211" d="M215.234,52.249l-.668-.665,40.625-40.625.668.661Z" transform="translate(591.324 30.192)" fill="#33ff9d"/>
      <rect id="Прямоугольник_4" data-name="Прямоугольник 4" width="0.939" height="57.455" transform="translate(4.935 395.661) rotate(-45)" fill="#ffa76c"/>
      <rect id="Прямоугольник_5" data-name="Прямоугольник 5" width="0.944" height="57.455" transform="translate(544.425 857.92) rotate(-45)" fill="#252f5a"/>
    </g>
  </g>
</svg>
