<svg xmlns="http://www.w3.org/2000/svg" width="1057" height="582.642" viewBox="0 0 1057 582.642">
  <g id="Сгруппировать_13" data-name="Сгруппировать 13" transform="translate(-308 -1293.042)">
    <path id="Контур_212" data-name="Контур 212" d="M33.767,102.118a27.08,27.08,0,1,1,27.081-27.08,27.08,27.08,0,0,1-27.081,27.08Zm0-53.276a26.2,26.2,0,1,0,26.2,26.2,26.2,26.2,0,0,0-26.2-26.2Z" transform="translate(301.312 1278.91)" fill="#fff"/>
    <path id="Контур_213" data-name="Контур 213" d="M108.148,235.787a8.624,8.624,0,1,1-8.624-8.624,8.624,8.624,0,0,1,8.624,8.624Z" transform="translate(592.081 1535.803)" fill="#252f5a"/>
    <path id="Контур_214" data-name="Контур 214" d="M183.681,21.214,169.559,45.68h28.247Z" transform="translate(965.75 1830.003)" fill="#ffa76c"/>
    <path id="Контур_215" data-name="Контур 215" d="M44.5,81.077l-.2-.741L36.789,52.311l28.763,7.707-.539.542ZM38.039,53.561l6.913,25.806,18.893-18.89Z" transform="translate(1299.448 1564.957)" fill="#fff"/>
    <rect id="Прямоугольник_9" data-name="Прямоугольник 9" width="24.053" height="24.053" transform="translate(1115 1310.05) rotate(-45)" fill="#252f5a"/>
    <rect id="Прямоугольник_10" data-name="Прямоугольник 10" width="0.889" height="54.128" transform="translate(766.097 1410.413) rotate(-45)" fill="#252f5a"/>
  </g>
</svg>
